<svg width="67" height="18" viewBox="0 0 67 18" fill="none" xmlns="http://www.w3.org/2000/svg">
<path d="M1.17981 0.983957V16.0408H10.4836V17.0521H-1.55866e-05V0.983957H1.17981ZM13.5849 8.97309C13.5849 13.7598 15.8434 16.1532 20.3605 16.1532C24.7951 16.1532 27.0125 13.7598 27.0125 8.97309C27.0125 4.24628 24.7951 1.88288 20.3605 1.88288C15.8434 1.88288 13.5849 4.24628 13.5849 8.97309ZM12.2927 9.04051C12.2927 3.59457 14.982 0.871593 20.3605 0.871593C25.6566 0.871593 28.3047 3.59457 28.3047 9.04051C28.3047 14.4565 25.6566 17.1645 20.3605 17.1645C14.982 17.1645 12.2927 14.4565 12.2927 9.04051ZM43.7099 16.4903C42.2491 16.9398 40.7509 17.1645 39.2153 17.1645C33.597 17.1645 30.7879 14.3741 30.7879 8.79331C30.7879 3.51216 33.597 0.871593 39.2153 0.871593C40.7509 0.871593 42.2491 1.09632 43.7099 1.54578V2.55706C42.2491 2.1076 40.8258 1.88288 39.44 1.88288C34.4585 1.88288 31.9678 4.18635 31.9678 8.79331C31.9678 13.6999 34.4585 16.1532 39.44 16.1532C40.8258 16.1532 42.2491 15.9285 43.7099 15.479V16.4903ZM47.0022 17.0521H45.7437L53.0137 0.983957H54.4182L61.7219 17.0521H60.3174L57.9352 11.6586H50.7327L51.081 10.6473H57.497L53.6429 1.90535L47.0022 17.0521ZM64.3934 17.6734L61.8391 15.2111H63.3809V14.4978L65.2679 14.4517V15.1421H66.8327L64.3934 17.6734ZM65.1759 10.5166L63.2888 10.5396L63.2428 8.58359L65.1298 8.53757L65.1759 10.5166ZM65.2449 13.4622L63.3579 13.4852L63.2888 11.5522L65.1759 11.4831L65.2449 13.4622ZM64.9918 1.4958H63.0817V0.0460258L64.9918 4.35137e-07V1.4958ZM65.0378 4.60246L63.1278 4.62547V2.66943L65.0378 2.6234V4.60246ZM65.1068 7.54804L63.2198 7.57105L63.1738 5.63801L65.1068 5.56898V7.54804Z" fill="white"/>
</svg>
