<svg width="66" height="33" viewBox="0 0 66 33" fill="none" xmlns="http://www.w3.org/2000/svg">
<path d="M6.69037 15.4596L3.4915 7.38669L3.84468 14.9853L-2.6254e-05 15.4596L0.181614 0.242186H3.16858L7.03347 9.61682L7.58848 0.242186H10.5754L10.5351 14.9853L6.69037 15.4596ZM18.1135 12.9267C18.5373 12.9267 18.9342 12.7383 19.3043 12.3616C19.6743 11.9849 19.977 11.4299 20.2125 10.6966C20.4546 9.96328 20.5757 9.05845 20.5757 7.98206C20.5757 6.84513 20.4546 5.88984 20.2125 5.11619C19.9703 4.34254 19.6608 3.76062 19.2841 3.37043C18.9073 2.97351 18.5138 2.77505 18.1034 2.77505C17.7132 2.77505 17.3365 2.96006 16.9732 3.33006C16.6167 3.70007 16.324 4.26181 16.0953 5.01528C15.8666 5.76202 15.7522 6.70722 15.7522 7.85088C15.7522 9.00126 15.8666 9.95319 16.0953 10.7067C16.324 11.4601 16.6167 12.0185 16.9732 12.3818C17.3298 12.7451 17.7099 12.9267 18.1135 12.9267ZM18.0731 15.6715C17.3331 15.6715 16.6099 15.5067 15.9036 15.177C15.2039 14.8541 14.5715 14.3664 14.0064 13.7138C13.4413 13.0545 12.9906 12.2371 12.6542 11.2617C12.3178 10.2862 12.1497 9.14927 12.1497 7.85088C12.1497 6.53903 12.3145 5.39201 12.6441 4.40981C12.9805 3.42761 13.4279 2.61023 13.9862 1.95767C14.5446 1.30512 15.1703 0.817378 15.8632 0.494463C16.5628 0.171548 17.2793 0.0100902 18.0126 0.0100902C18.7324 0.0100902 19.4321 0.181639 20.1115 0.524736C20.791 0.867834 21.3965 1.38584 21.9279 2.07877C22.4661 2.76496 22.8933 3.6227 23.2095 4.652C23.5257 5.68129 23.6838 6.88213 23.6838 8.25452C23.6838 9.49236 23.5257 10.5755 23.2095 11.5039C22.8933 12.4322 22.4695 13.2059 21.938 13.8248C21.4066 14.437 20.8078 14.8978 20.1418 15.2073C19.4758 15.5168 18.7862 15.6715 18.0731 15.6715ZM35.6115 15.4596L35.1675 4.66209L31.9686 13.068L28.7193 4.67218L28.2752 15.4596L24.4204 14.9853L26.5295 0.242186H29.8394L31.9383 5.74184L34.0373 0.242186H37.3471L39.4663 14.9853L35.6115 15.4596ZM44.5421 12.069L43.3917 15.399L40.0314 14.9853L44.7843 0.242186H48.5684L53.3214 14.9853L50.0317 15.3889L48.9923 12.4423L44.5421 12.069ZM48.0134 9.64709L46.6814 5.86293L45.3393 9.76819L48.0134 9.64709ZM57.7514 12.4928C58.2828 12.4659 58.7672 12.3145 59.2045 12.0387C59.6821 11.736 60.0925 11.3357 60.4356 10.8378C60.7787 10.34 61.0411 9.78164 61.2227 9.16272C61.4111 8.5438 61.5052 7.92151 61.5052 7.29587C61.5052 6.06475 61.1689 5.05228 60.4961 4.25844C59.7898 3.4377 58.784 2.99706 57.4789 2.93651L57.7514 12.4928ZM57.8321 15.4596C57.4823 15.4596 56.2007 15.3015 53.9874 14.9853L54.4112 -8.99658e-07H57.3982C58.7235 -8.99658e-07 59.8705 0.19173 60.8392 0.575192C61.8147 0.958654 62.622 1.48339 63.2611 2.1494C63.9002 2.81542 64.3745 3.58234 64.6839 4.45018C65.0001 5.31801 65.1582 6.2363 65.1582 7.20505C65.1582 8.24107 64.9968 9.25018 64.6739 10.2324C64.3577 11.2146 63.8867 12.0992 63.2611 12.8863C62.6422 13.6667 61.8753 14.2924 60.9603 14.7633C60.0521 15.2275 59.0094 15.4596 57.8321 15.4596ZM15.7421 32.7018C13.7844 32.7018 12.2607 31.9046 11.1708 30.3102C10.1819 28.8705 9.68743 27.0608 9.68743 24.8812C9.68743 23.8384 9.82198 22.836 10.0911 21.874C10.636 19.8961 11.6451 18.4868 13.1184 17.6458C13.8719 17.2153 14.7464 17 15.7421 17C16.7848 17 17.7805 17.3027 18.7291 17.9082C19.6844 18.5137 20.4311 19.368 20.9693 20.4713L17.5585 22.0456C17.397 21.4468 17.2221 20.9826 17.0338 20.653C16.8521 20.3166 16.6537 20.0845 16.4384 19.9567C16.2231 19.8221 15.991 19.7549 15.7421 19.7549C14.9886 19.7549 14.3899 20.2796 13.9459 21.3291C13.5422 22.2844 13.3404 23.4449 13.3404 24.8105C13.3404 26.1762 13.5422 27.3501 13.9459 28.3323C14.3764 29.4087 14.9752 29.9469 15.7421 29.9469C16.1188 29.9469 16.4317 29.7652 16.6806 29.402C16.9362 29.032 17.1717 28.4332 17.3869 27.6057L20.9693 29.2304C20.4311 30.3337 19.6844 31.1881 18.7291 31.7936C17.7805 32.399 16.7848 32.7018 15.7421 32.7018ZM28.7596 32.4596L28.6385 25.9407L25.5406 26.193L25.5204 32.4596L21.6757 31.9853L22.5839 17.2422H25.5708L25.5506 23.4684L28.5881 23.5996L28.467 17.2422H31.4539L32.5942 31.9853L28.7596 32.4596ZM37.6499 24.0133L41.8478 23.7812L41.6056 27.0003L37.5792 26.5563L37.4985 29.4928L43.2807 29.1295L43.0385 32.4596L34.4409 31.9853L34.0171 17.4743L43.977 17L43.7348 20.209L37.7811 19.553L37.6499 24.0133ZM48.5079 26.5563L48.3464 32.4596H45.3494L44.9256 17.4743L54.8855 17L54.6534 20.209L48.6895 19.553L48.5685 24.0133L52.7563 23.7812L52.5141 27.0003L48.5079 26.5563Z" fill="white"/>
</svg>
