<svg width="192" height="45" viewBox="0 0 192 45" fill="none" xmlns="http://www.w3.org/2000/svg">
<g filter="url(#filter0_d_100_502)">
<path d="M62.8317 31.1595C62.5562 31.0829 62.3343 31.014 62.1659 30.9528C61.9975 30.9069 61.9133 30.8839 61.9133 30.8839C61.944 30.8074 61.9286 30.7385 61.8674 30.6773C61.8215 30.6161 61.7144 30.5778 61.546 30.5625C61.3164 30.4247 61.1021 30.2487 60.9031 30.0344C60.7194 29.8355 60.5664 29.6365 60.4439 29.4375C60.3215 29.2385 60.2296 29.0701 60.1684 28.9324C60.0613 28.7028 60.0077 28.565 60.0077 28.5191C60.023 28.4579 60.1148 28.389 60.2832 28.3125C60.4516 28.19 60.574 28.1518 60.6506 28.1977C60.7424 28.2436 60.8495 28.3967 60.972 28.6569C61.171 29.0089 61.5077 29.2768 61.9822 29.4604C62.472 29.6441 63.0154 29.7283 63.6123 29.713C64.2246 29.6824 64.8062 29.5446 65.3573 29.2997C65.9236 29.0701 66.2757 28.8329 66.4134 28.588C66.5665 28.3278 66.5129 27.9987 66.2527 27.6007C66.2068 27.4783 66.1532 27.3788 66.092 27.3022C66.0307 27.2257 65.9313 27.1262 65.7935 27.0038C65.6711 26.8813 65.4644 26.6823 65.1736 26.4068C64.944 26.2997 64.7297 26.2002 64.5307 26.1084C64.3471 26.0165 64.1481 25.917 63.9338 25.8099C63.6889 25.6874 63.3904 25.5114 63.0384 25.2818C62.7016 25.0369 62.3802 24.769 62.0741 24.4782C61.7679 24.1874 61.546 23.9195 61.4082 23.6746C61.1633 23.445 60.9797 23.1313 60.8572 22.7333C60.7348 22.32 60.6888 21.8838 60.7194 21.4246C60.7501 20.9654 60.8649 20.5521 61.0638 20.1848C61.1557 19.9705 61.3087 19.7103 61.523 19.4042C61.7526 19.0827 62.0052 18.7613 62.2807 18.4399C62.5562 18.1184 62.8241 17.8276 63.0843 17.5674C63.3445 17.3072 63.5588 17.1235 63.7271 17.0164C63.8496 16.8939 63.9797 16.7715 64.1175 16.649C64.2552 16.5113 64.3241 16.4424 64.3241 16.4424C64.3394 16.3659 64.3624 16.3276 64.393 16.3276C64.4389 16.3276 64.4618 16.3276 64.4618 16.3276C64.5384 16.2817 64.7067 16.2051 64.967 16.098C65.2272 15.9909 65.5103 15.7919 65.8165 15.501C66.842 15.0112 67.6762 14.6515 68.319 14.422C68.9619 14.1924 69.49 14.0776 69.9033 14.0776C70.2859 14.0929 70.6303 14.1847 70.9364 14.3531C71.2579 14.5061 71.5181 14.7128 71.7171 14.973C71.9313 15.2332 72.0615 15.547 72.1074 15.9143C72.2145 16.2817 72.1839 16.7103 72.0155 17.2001C71.8472 17.6746 71.5946 18.1261 71.2579 18.5547C70.9364 18.9679 70.5844 19.2817 70.2017 19.496C69.7732 19.6797 69.4823 19.7639 69.3293 19.7486C69.1915 19.718 69.1303 19.5572 69.1456 19.2664C69.1456 19.144 69.1839 18.9986 69.2604 18.8302C69.3522 18.6618 69.5895 18.3633 69.9721 17.9348C70.4619 17.2154 70.7604 16.6414 70.8676 16.2128C70.9747 15.7842 70.8752 15.547 70.5691 15.501C70.4772 15.4704 70.3089 15.4704 70.064 15.501C69.8344 15.5317 69.5742 15.5776 69.2834 15.6388C69.0078 15.6847 68.7706 15.7383 68.5716 15.7995C68.3726 15.8454 68.2731 15.8837 68.2731 15.9143C68.2731 15.9143 68.2731 15.9373 68.2731 15.9832C68.2731 16.0291 68.2425 16.0444 68.1813 16.0291C68.1507 16.0291 68.0206 16.0903 67.791 16.2128C67.5614 16.3352 67.2859 16.496 66.9644 16.6949C66.643 16.8939 66.3216 17.0929 66.0001 17.2919C65.6787 17.4909 65.4032 17.6669 65.1736 17.82C64.9593 17.9577 64.8445 18.0419 64.8292 18.0725C64.7986 18.2409 64.6226 18.394 64.3011 18.5317C63.995 18.7154 63.7118 18.9832 63.4516 19.3353C63.2067 19.6873 62.9312 20.1236 62.6251 20.644C62.3649 20.996 62.1812 21.3787 62.0741 21.792C61.9669 22.1899 61.9669 22.5114 62.0741 22.7563C62.1506 23.0012 62.3878 23.3149 62.7858 23.6976C63.1838 24.0803 63.6812 24.4476 64.2782 24.7997C64.7986 25.0905 65.2654 25.3813 65.6787 25.6721C66.092 25.9476 66.4287 26.2155 66.6889 26.4757C66.9644 26.7359 67.1481 26.9655 67.24 27.1645C67.4236 27.4247 67.5537 27.6926 67.6303 27.9681C67.7221 28.2283 67.768 28.4808 67.768 28.7257C67.7833 28.9706 67.7604 29.1926 67.6991 29.3916C67.592 29.6365 67.4007 29.889 67.1252 30.1492C66.8649 30.4094 66.643 30.5319 66.4593 30.5166C66.291 30.5625 66.1609 30.6161 66.069 30.6773C65.9925 30.7385 65.9006 30.7921 65.7935 30.838C65.6864 30.8992 65.4568 30.9605 65.1047 31.0217C64.768 31.0829 64.393 31.1212 63.9797 31.1365C63.5664 31.1671 63.1838 31.1748 62.8317 31.1595ZM75.5007 29.9656C75.3477 29.8125 75.1946 29.6059 75.0415 29.3456C74.8885 29.0701 74.766 28.7564 74.6742 28.4043C74.6436 28.2819 74.6283 28.1135 74.6283 27.8992C74.6436 27.6849 74.6436 27.5318 74.6283 27.44C74.5823 27.5472 74.5058 27.6619 74.3987 27.7844C74.3068 27.8915 74.215 27.9834 74.1231 28.0599C74.0619 28.1211 73.9242 28.2436 73.7099 28.4273C73.4956 28.5956 73.2813 28.7334 73.067 28.8405C72.5619 29.162 72.141 29.338 71.8042 29.3686C71.4828 29.3992 71.1767 29.2309 70.8859 28.8635C70.641 28.6645 70.4649 28.4426 70.3578 28.1977C70.2659 27.9528 70.2659 27.616 70.3578 27.1875C70.3884 26.6517 70.4649 26.1313 70.5874 25.6262C70.7098 25.1058 70.9624 24.417 71.345 23.5598C71.6665 22.9323 71.9114 22.4731 72.0797 22.1823C72.2481 21.8761 72.3553 21.6925 72.4012 21.6312C72.6308 21.5547 72.8221 21.5624 72.9752 21.6542C73.1282 21.7307 73.2201 21.8761 73.2507 22.0904C73.3425 22.2435 73.3272 22.5037 73.2048 22.8711C73.0976 23.2384 72.9063 23.69 72.6308 24.2257C72.4165 24.7461 72.2175 25.2665 72.0338 25.7869C71.8655 26.3073 71.766 26.7512 71.7354 27.1186C71.7047 27.4859 71.7966 27.7079 72.0109 27.7844C72.1486 27.8609 72.3859 27.838 72.7226 27.7155C73.0747 27.5931 73.465 27.2869 73.8936 26.7971C74.3374 26.3073 74.766 25.565 75.1793 24.5701C75.3017 24.2639 75.3936 23.9961 75.4548 23.7665C75.516 23.5216 75.5543 23.2537 75.5696 22.9629C75.539 22.7792 75.5466 22.6185 75.5926 22.4807C75.6538 22.3277 75.7762 22.1976 75.9599 22.0904C76.0211 22.0139 76.1053 21.945 76.2125 21.8838C76.3196 21.8073 76.3885 21.8073 76.4191 21.8838L76.7865 21.8608C76.8477 21.8455 76.8859 21.8838 76.9013 21.9756C76.9319 22.0522 76.9854 22.121 77.062 22.1823C77.2303 22.32 77.2763 22.6185 77.1997 23.0777C77.1232 23.5369 76.9089 24.1798 76.5569 25.0063C76.266 25.6339 76.0671 26.1084 75.9599 26.4298C75.8681 26.7512 75.8145 27.065 75.7992 27.3711C75.7992 27.6466 75.8528 27.9069 75.9599 28.1518C76.0671 28.3967 76.2354 28.6186 76.465 28.8176C76.6334 28.9247 76.7252 29.0472 76.7405 29.1849C76.7711 29.3227 76.7788 29.4834 76.7635 29.6671C76.7329 29.8048 76.641 29.9196 76.488 30.0115C76.3502 30.088 76.1895 30.1263 76.0058 30.1263C75.8222 30.1263 75.6538 30.0727 75.5007 29.9656ZM86.6388 28.9553C86.3327 28.9553 86.0801 28.8941 85.8811 28.7717C85.6821 28.6339 85.5138 28.412 85.376 28.1058C85.3148 27.8915 85.2612 27.6543 85.2153 27.3941C85.1847 27.1186 85.1694 26.866 85.1694 26.6364C85.1694 26.3915 85.1923 26.2308 85.2383 26.1543C85.2995 26.093 85.3224 25.9859 85.3071 25.8328C85.3071 25.6645 85.3071 25.4884 85.3071 25.3048C85.2918 24.9986 85.2153 24.8303 85.0775 24.7997C84.9551 24.7537 84.7714 24.7997 84.5265 24.9374C84.251 25.1058 83.8913 25.3354 83.4474 25.6262C83.0035 25.9017 82.5367 26.2078 82.0469 26.5446C81.5724 26.8813 81.1208 27.2334 80.6923 27.6007C80.3555 27.9681 80.1489 28.2512 80.0724 28.4502C80.0111 28.6339 79.9193 28.7257 79.7968 28.7257C79.6744 28.787 79.5672 28.7946 79.4754 28.7487C79.3989 28.6875 79.2841 28.5956 79.131 28.4732C79.0239 28.3507 78.9167 28.2359 78.8096 28.1288C78.7024 28.0063 78.6336 27.9145 78.6029 27.8533C78.6029 27.7767 78.6259 27.616 78.6718 27.3711C78.7177 27.1262 78.7713 26.8813 78.8325 26.6364C78.9091 26.3915 78.9626 26.2308 78.9933 26.1543C79.0698 26.1543 79.131 26.0777 79.1769 25.9247C79.2382 25.7716 79.33 25.6032 79.4524 25.4196C79.4831 25.2359 79.5596 24.991 79.682 24.6849C79.8198 24.3634 79.9423 24.0803 80.0494 23.8354C80.2637 23.468 80.4091 23.1619 80.4856 22.917C80.5775 22.6721 80.6387 22.366 80.6693 21.9986C80.654 21.9374 80.6693 21.8838 80.7152 21.8379C80.7611 21.7767 80.8147 21.746 80.8759 21.746C80.9984 21.6236 81.1438 21.593 81.3122 21.6542C81.4805 21.7001 81.6336 21.8149 81.7714 21.9986C82.0469 22.366 82.154 22.7486 82.0928 23.1466C82.0469 23.5292 81.802 24.0803 81.3581 24.7997C81.2509 25.0446 81.1668 25.2359 81.1055 25.3736C81.0596 25.4961 81.0367 25.5956 81.0367 25.6721C81.0367 25.6721 81.1132 25.6186 81.2663 25.5114C81.4346 25.4043 81.6183 25.2818 81.8173 25.1441C82.0316 24.991 82.1999 24.8762 82.3224 24.7997C82.3989 24.7231 82.5749 24.5854 82.8505 24.3864C83.126 24.1874 83.4168 23.9961 83.7229 23.8124C84.0444 23.6134 84.2816 23.4986 84.4347 23.468C84.5571 23.4068 84.6872 23.3532 84.825 23.3073C84.9627 23.2461 85.0622 23.2155 85.1235 23.2155C85.2459 23.2155 85.399 23.2843 85.5826 23.4221C85.7816 23.5445 85.9653 23.6976 86.1337 23.8813C86.302 24.0496 86.4015 24.1951 86.4321 24.3175C86.4321 24.3787 86.4321 24.44 86.4321 24.5012C86.4475 24.5624 86.4628 24.6236 86.4781 24.6849C86.5393 24.8838 86.5699 25.1517 86.5699 25.4884C86.5852 25.8252 86.5776 26.1313 86.5469 26.4068C86.5163 26.6823 86.4628 26.8431 86.3862 26.889C86.3862 26.889 86.3862 26.9119 86.3862 26.9579C86.4015 26.9885 86.4398 27.0038 86.501 27.0038C86.501 27.065 86.501 27.1033 86.501 27.1186C86.4245 27.1186 86.3939 27.1875 86.4092 27.3252C86.4245 27.4477 86.4704 27.5854 86.5469 27.7385C86.6388 27.8915 86.7306 28.014 86.8225 28.1058C87.0061 28.2895 87.0827 28.4655 87.0521 28.6339C87.0214 28.787 86.8837 28.8941 86.6388 28.9553ZM90.2479 29.2997C90.202 29.315 90.1255 29.3074 90.0183 29.2768C89.9112 29.2462 89.804 29.2079 89.6969 29.162C89.5897 29.1161 89.5209 29.0778 89.4902 29.0472C89.429 28.9859 89.3678 28.8941 89.3066 28.7717C89.2607 28.6492 89.2607 28.4732 89.3066 28.2436C89.3525 27.9987 89.5056 27.6849 89.7658 27.3022C89.8423 27.1492 89.9341 26.9196 90.0413 26.6135C90.1484 26.3073 90.2556 25.9859 90.3627 25.6492C90.4852 25.2971 90.5923 24.9833 90.6841 24.7078C90.7913 24.4323 90.8678 24.241 90.9137 24.1338C90.9444 23.8736 90.929 23.69 90.8678 23.5828C90.8219 23.4604 90.6918 23.3915 90.4775 23.3762C90.3244 23.3762 90.202 23.3609 90.1102 23.3303C90.0336 23.2996 89.9954 23.1466 89.9954 22.8711C90.026 22.6568 90.0795 22.5114 90.1561 22.4348C90.2479 22.343 90.3704 22.2435 90.5234 22.1364C90.6765 22.0598 90.8296 22.0063 90.9826 21.9756C91.151 21.945 91.3117 21.9374 91.4648 21.9527C91.6178 21.968 91.7403 22.0216 91.8321 22.1134C91.9393 22.1746 92.0081 22.3124 92.0388 22.5267C92.0694 22.7256 92.0847 22.9323 92.0847 23.1466C92.1 23.3609 92.1153 23.5216 92.1306 23.6287C92.2837 23.5063 92.4903 23.3379 92.7505 23.1236C93.026 22.894 93.2633 22.6797 93.4622 22.4807C93.7071 22.3124 93.998 22.144 94.3347 21.9756C94.6714 21.792 94.9164 21.7001 95.0694 21.7001C95.2378 21.7001 95.4062 21.746 95.5745 21.8379C95.7429 21.9144 95.8577 22.0139 95.9189 22.1364C96.072 22.3966 96.1409 22.6262 96.1256 22.8251C96.1256 23.0241 96.0414 23.2308 95.873 23.445C95.7199 23.644 95.5286 23.7818 95.299 23.8583C95.0847 23.9349 94.947 23.9731 94.8857 23.9731C94.7939 23.9731 94.6791 23.9042 94.5413 23.7665C94.4036 23.6287 94.3271 23.5139 94.3118 23.4221C94.3118 23.3762 94.2123 23.4221 94.0133 23.5598C93.8296 23.6823 93.623 23.843 93.3934 24.042C93.1638 24.2257 92.9724 24.394 92.8194 24.5471C92.5592 24.8685 92.2837 25.3048 91.9928 25.8558C91.702 26.4068 91.3576 27.0727 90.9597 27.8533C90.776 28.2359 90.6459 28.565 90.5693 28.8405C90.4928 29.1007 90.3857 29.2538 90.2479 29.2997ZM98.2689 29.2997C98.0393 29.2691 97.8403 29.1084 97.6719 28.8176C97.5189 28.5115 97.427 28.2359 97.3964 27.991C97.4117 27.8686 97.427 27.6926 97.4423 27.463C97.4729 27.2334 97.5035 26.9961 97.5342 26.7512C97.5954 26.4604 97.6796 26.1084 97.7867 25.6951C97.8939 25.2665 98.001 24.8379 98.1081 24.4093C98.2306 23.9808 98.3377 23.6134 98.4296 23.3073C98.5214 23.0012 98.5826 22.8175 98.6133 22.7563C98.6898 22.6338 98.8122 22.6032 98.9806 22.6644C99.149 22.7256 99.2867 22.8175 99.3939 22.9399C99.4857 23.0624 99.5393 23.2078 99.5546 23.3762C99.5852 23.5445 99.5622 23.7894 99.4857 24.1109C99.4245 24.4323 99.302 24.9068 99.1184 25.5344C98.95 26.1466 98.8199 26.6441 98.7281 27.0267C98.6515 27.3941 98.6209 27.7844 98.6362 28.1977C98.575 28.7181 98.5291 29.0395 98.4985 29.162C98.4678 29.2691 98.3913 29.315 98.2689 29.2997ZM100.909 20.1389C100.848 20.1848 100.787 20.2078 100.726 20.2078C100.68 20.1924 100.595 20.1465 100.473 20.07C100.366 20.0547 100.228 19.9858 100.06 19.8634C99.9066 19.7256 99.7689 19.5878 99.6464 19.4501C99.5393 19.297 99.4857 19.2052 99.4857 19.1746C99.4704 19.0215 99.4781 18.8302 99.5087 18.6006C99.5546 18.3557 99.6388 18.1414 99.7612 17.9577C99.8837 17.7587 100.06 17.6516 100.289 17.6363C100.351 17.6363 100.404 17.6439 100.45 17.6592C100.496 17.6746 100.634 17.7281 100.863 17.82C100.986 18.0496 101.108 18.3098 101.231 18.6006C101.353 18.8761 101.407 19.1516 101.391 19.4271C101.376 19.6873 101.215 19.9246 100.909 20.1389ZM103.516 29.69C102.75 29.69 102.192 29.4145 101.84 28.8635C101.732 28.7104 101.679 28.5574 101.679 28.4043C101.694 28.2359 101.74 28.1211 101.817 28.0599C101.908 27.9987 102.016 28.0523 102.138 28.2206C102.352 28.3431 102.658 28.4043 103.056 28.4043C103.255 28.4043 103.462 28.389 103.676 28.3584C103.891 28.3125 104.105 28.2512 104.319 28.1747C104.549 28.0676 104.702 27.9757 104.778 27.8992C104.855 27.8074 104.84 27.7308 104.733 27.6696H104.755C104.358 27.5625 103.952 27.3941 103.539 27.1645C103.141 26.9196 102.796 26.6594 102.505 26.3839C102.215 26.093 102.046 25.8328 102 25.6032C101.878 25.1287 101.908 24.6466 102.092 24.1568C102.276 23.6517 102.536 23.2078 102.873 22.8251C102.995 22.7486 103.148 22.6568 103.332 22.5496C103.516 22.4272 103.661 22.3583 103.768 22.343V22.366C104.059 22.0598 104.411 21.8149 104.824 21.6312C105.253 21.4476 105.704 21.2792 106.179 21.1261L106.523 21.0802C106.707 21.0496 106.86 21.0343 106.983 21.0343C106.967 21.0343 106.998 21.0496 107.074 21.0802C107.151 21.0955 107.22 21.1108 107.281 21.1261C107.373 21.1721 107.449 21.195 107.511 21.195C107.71 21.2256 107.893 21.3175 108.062 21.4705C108.23 21.6236 108.36 21.8073 108.452 22.0216C108.559 22.2205 108.597 22.4119 108.567 22.5955C108.536 22.8864 108.444 23.1466 108.291 23.3762C108.153 23.6058 107.985 23.7359 107.786 23.7665C107.817 23.7512 107.794 23.7282 107.717 23.6976C107.656 23.6517 107.587 23.6058 107.511 23.5598L107.442 23.6058C107.442 23.6058 107.434 23.5905 107.419 23.5598C107.419 23.5139 107.403 23.4604 107.373 23.3991C107.327 23.3073 107.304 23.2078 107.304 23.1007C107.304 22.9782 107.312 22.8481 107.327 22.7103C107.358 22.542 107.358 22.4425 107.327 22.4119C107.312 22.3813 107.212 22.3583 107.028 22.343C106.814 22.2971 106.5 22.3353 106.087 22.4578C105.689 22.5802 105.352 22.7486 105.077 22.9629C104.74 23.1772 104.457 23.3838 104.227 23.5828C103.998 23.7665 103.814 23.9502 103.676 24.1338C103.539 24.3022 103.416 24.5012 103.309 24.7308C103.232 24.8379 103.164 24.9451 103.102 25.0522C103.056 25.1441 103.034 25.2282 103.034 25.3048C103.034 25.4731 103.156 25.6492 103.401 25.8328C103.661 26.0012 104.044 26.2002 104.549 26.4298C104.947 26.5982 105.284 26.7818 105.559 26.9808C105.835 27.1798 106.026 27.4094 106.133 27.6696C106.164 27.7308 106.171 27.8074 106.156 27.8992C106.156 27.9757 106.141 28.0293 106.11 28.0599C106.141 28.0905 106.156 28.1135 106.156 28.1288V28.1058C106.278 28.2895 106.278 28.4808 106.156 28.6798C106.049 28.8788 105.858 29.0548 105.582 29.2079C105.322 29.3456 105 29.4528 104.618 29.5293H104.641C104.442 29.5905 104.243 29.6365 104.044 29.6671C103.86 29.6824 103.684 29.69 103.516 29.69ZM110.836 29.4604C110.239 29.2155 109.848 28.8788 109.665 28.4502C109.496 28.0063 109.466 27.3252 109.573 26.4068C109.603 25.9323 109.619 25.6186 109.619 25.4655C109.619 25.3124 109.535 25.1594 109.366 25.0063C109.32 24.9451 109.236 24.8609 109.114 24.7537C109.007 24.6466 108.961 24.5548 108.976 24.4782C108.961 24.3711 108.968 24.2563 108.999 24.1338C109.029 23.9961 109.075 23.9272 109.137 23.9272C109.198 23.9272 109.259 23.9119 109.32 23.8813C109.397 23.8507 109.466 23.8507 109.527 23.8813C109.588 23.8813 109.657 23.8889 109.734 23.9042C109.81 23.9195 109.848 23.9578 109.848 24.019C109.91 24.1262 110.009 24.1415 110.147 24.065C110.285 23.9731 110.43 23.7741 110.583 23.468C110.736 23.2231 110.935 22.9782 111.18 22.7333C111.44 22.4884 111.693 22.2665 111.938 22.0675C112.198 21.8532 112.412 21.7001 112.581 21.6083C112.657 21.5777 112.772 21.5394 112.925 21.4935C113.078 21.4476 113.239 21.4093 113.407 21.3787C113.591 21.3481 113.744 21.3404 113.866 21.3557C114.142 21.371 114.371 21.4476 114.555 21.5853C114.754 21.7231 114.938 21.8838 115.106 22.0675C115.305 22.2052 115.428 22.3889 115.473 22.6185C115.535 22.8481 115.55 23.093 115.519 23.3532C115.489 23.6134 115.42 23.8507 115.313 24.065C115.267 24.218 115.137 24.4017 114.922 24.616C114.708 24.8303 114.463 25.0369 114.188 25.2359C113.912 25.4349 113.66 25.5803 113.43 25.6721C113.231 25.718 112.971 25.7563 112.649 25.7869C112.343 25.8175 112.052 25.8328 111.777 25.8328C111.517 25.8175 111.341 25.7869 111.249 25.741C111.142 25.6798 111.058 25.764 110.996 25.9936C110.935 26.2232 110.889 26.5522 110.859 26.9808C110.828 27.3176 110.828 27.5625 110.859 27.7155C110.889 27.8686 110.92 27.9757 110.95 28.037C111.058 28.1441 111.203 28.2819 111.387 28.4502C111.586 28.6033 111.861 28.6262 112.213 28.5191C112.504 28.4426 112.787 28.2436 113.063 27.9222C113.354 27.6007 113.621 27.3405 113.866 27.1415C113.927 27.0344 114.027 26.9732 114.165 26.9579C114.318 26.9272 114.479 26.9349 114.647 26.9808C114.815 27.088 114.884 27.2181 114.854 27.3711C114.838 27.5089 114.762 27.7232 114.624 28.014C114.578 28.1211 114.471 28.2589 114.303 28.4273C114.149 28.5803 113.973 28.741 113.774 28.9094C113.591 29.0625 113.422 29.1849 113.269 29.2768C112.81 29.5217 112.382 29.6518 111.984 29.6671C111.586 29.6671 111.203 29.5982 110.836 29.4604ZM112.19 24.7997C112.527 24.7231 112.795 24.6696 112.994 24.6389C113.193 24.6083 113.384 24.5241 113.568 24.3864C113.751 24.2333 113.981 23.9502 114.257 23.5369C114.318 23.3685 114.333 23.2001 114.303 23.0318C114.287 22.8634 114.249 22.7486 114.188 22.6874C114.05 22.5343 113.882 22.4884 113.683 22.5496C113.499 22.5955 113.323 22.6797 113.155 22.8022C113.047 22.8481 112.887 22.9629 112.672 23.1466C112.473 23.3149 112.274 23.5139 112.075 23.7435C111.876 23.9578 111.716 24.1568 111.593 24.3405C111.471 24.5241 111.44 24.6313 111.501 24.6619C111.471 24.7231 111.555 24.7614 111.754 24.7767C111.968 24.792 112.114 24.7997 112.19 24.7997ZM125.263 30.5625C124.788 30.5319 124.368 30.3865 124 30.1263C123.648 29.8661 123.273 29.5982 122.875 29.3227C122.615 29.0625 122.408 28.787 122.255 28.4961C122.102 28.19 121.98 27.7921 121.888 27.3022C121.827 27.0114 121.827 26.6441 121.888 26.2002C121.949 25.7563 122.049 25.3124 122.186 24.8685C122.324 24.4093 122.454 24.042 122.577 23.7665C122.76 23.3379 122.99 22.8787 123.266 22.3889C123.556 21.8838 123.84 21.4093 124.115 20.9654C124.406 20.5062 124.635 20.1389 124.804 19.8634C124.911 19.7562 124.957 19.7026 124.942 19.7026C124.942 19.6873 124.942 19.6797 124.942 19.6797C124.942 19.6032 125.018 19.4118 125.171 19.1057C125.34 18.7843 125.485 18.5011 125.607 18.2562C125.837 18.0113 125.967 17.8123 125.998 17.6592C126.028 17.5062 126.005 17.3837 125.929 17.2919C125.898 17.2307 125.952 17.1235 126.09 16.9705C126.227 16.8174 126.434 16.6414 126.709 16.4424C126.985 16.2434 127.299 16.0444 127.651 15.8454C128.018 15.5546 128.37 15.4016 128.707 15.3863C129.059 15.3556 129.266 15.4245 129.327 15.5929C129.327 15.6388 129.411 15.6541 129.579 15.6388C129.763 15.6082 129.97 15.5699 130.199 15.524C130.444 15.4628 130.658 15.4169 130.842 15.3863C130.919 15.2944 131.095 15.2255 131.37 15.1796C131.661 15.1184 131.998 15.0648 132.38 15.0189C132.579 15.0342 132.771 15.0419 132.954 15.0419C133.153 15.0266 133.314 15.0112 133.437 14.9959C133.574 14.9806 133.643 14.973 133.643 14.973C133.75 14.9424 133.873 14.9577 134.011 15.0189C134.164 15.0801 134.301 15.2485 134.424 15.524C134.531 15.7995 134.493 16.0062 134.309 16.1439C134.141 16.2817 133.743 16.3888 133.115 16.4654C132.656 16.5266 132.258 16.5801 131.921 16.6261C131.585 16.6567 131.232 16.7026 130.865 16.7638C130.498 16.8097 130.046 16.8939 129.511 17.0164C129.128 17.0929 128.814 17.1847 128.569 17.2919C128.324 17.3837 128.11 17.5291 127.926 17.7281C127.743 17.9118 127.536 18.1797 127.306 18.5317C127.199 18.6082 127.061 18.8072 126.893 19.1287C126.725 19.4501 126.556 19.7715 126.388 20.093C125.959 20.6899 125.584 21.2103 125.263 21.6542C124.957 22.0828 124.834 22.3353 124.896 22.4119C124.896 22.4119 124.98 22.4348 125.148 22.4807C125.317 22.5267 125.431 22.5496 125.493 22.5496C125.646 22.4731 125.829 22.4195 126.044 22.3889C126.273 22.3583 126.457 22.3277 126.595 22.2971C127.544 22.0522 128.286 21.8608 128.822 21.7231C129.373 21.5853 129.786 21.4858 130.062 21.4246C130.352 21.3481 130.574 21.3022 130.727 21.2869C130.942 21.1185 131.148 21.0879 131.347 21.195C131.562 21.3022 131.73 21.4705 131.852 21.7001C131.929 21.8685 131.929 22.0139 131.852 22.1364C131.791 22.2588 131.6 22.3813 131.278 22.5037C130.972 22.6262 130.513 22.7716 129.901 22.9399C129.289 23.1083 128.485 23.3303 127.49 23.6058C126.648 23.8507 125.929 23.9961 125.332 24.042C124.735 24.0879 124.452 23.9578 124.482 23.6517C124.375 23.5905 124.253 23.667 124.115 23.8813C123.993 24.0803 123.87 24.3558 123.748 24.7078C123.625 25.0599 123.518 25.4349 123.426 25.8328C123.35 26.2308 123.296 26.6058 123.266 26.9579C123.25 27.2946 123.273 27.5472 123.334 27.7155C123.457 28.0676 123.618 28.3507 123.817 28.565C124.016 28.764 124.375 28.94 124.896 29.0931C125.202 29.1084 125.5 29.1314 125.791 29.162C126.082 29.1926 126.411 29.1314 126.778 28.9783C127.681 28.8252 128.393 28.6645 128.914 28.4961C129.434 28.3278 129.732 28.213 129.809 28.1518C129.931 28.0905 130.008 28.0599 130.039 28.0599C130.084 28.0446 130.146 28.037 130.222 28.037C130.176 28.1135 130.192 28.1211 130.268 28.0599C130.36 27.9834 130.482 27.8686 130.636 27.7155C130.804 27.5625 131.026 27.417 131.301 27.2793C131.577 27.1415 131.822 27.0344 132.036 26.9579C132.266 26.8813 132.388 26.8813 132.403 26.9579C132.495 27.1109 132.48 27.3252 132.357 27.6007C132.235 27.8609 132.013 28.1518 131.692 28.4732C131.37 28.7793 130.957 29.0778 130.452 29.3686C129.641 29.7972 128.76 30.0957 127.811 30.264C126.863 30.4477 126.013 30.5472 125.263 30.5625ZM136.91 29.7589C136.466 29.8355 136.061 29.8125 135.693 29.69C135.326 29.5523 135.028 29.3303 134.798 29.0242C134.584 28.7028 134.477 28.2972 134.477 27.8074C134.431 27.3482 134.484 26.8201 134.637 26.2232C134.79 25.6109 135.012 24.9986 135.303 24.3864C135.609 23.7741 135.938 23.2461 136.29 22.8022C136.597 22.4348 136.903 22.0981 137.209 21.792C137.515 21.4858 137.79 21.2792 138.035 21.1721C138.25 21.0802 138.449 21.0266 138.632 21.0113C138.831 20.9807 138.992 20.9654 139.114 20.9654C139.359 21.0266 139.62 21.1414 139.895 21.3098C140.186 21.4629 140.331 21.6312 140.331 21.8149C140.331 21.8149 140.347 21.8379 140.377 21.8838C140.423 21.9144 140.446 21.9297 140.446 21.9297C140.538 21.9297 140.614 22.0292 140.676 22.2282C140.752 22.4272 140.798 22.6568 140.813 22.917C140.829 23.1619 140.79 23.3685 140.699 23.5369C140.637 23.8277 140.53 24.0803 140.377 24.2946C140.224 24.5088 140.086 24.616 139.964 24.616C139.903 24.616 139.841 24.6236 139.78 24.6389C139.734 24.6389 139.711 24.6772 139.711 24.7537C139.711 24.8303 139.665 24.8609 139.574 24.8456C139.497 24.8303 139.413 24.7844 139.321 24.7078C139.229 24.616 139.16 24.5088 139.114 24.3864C139.114 24.3099 139.145 24.1798 139.206 23.9961C139.267 23.8124 139.329 23.5752 139.39 23.2843C139.482 22.8558 139.474 22.5802 139.367 22.4578C139.26 22.32 139.053 22.3124 138.747 22.4348C138.364 22.6491 137.997 22.9476 137.645 23.3303C137.308 23.7129 136.994 24.2104 136.704 24.8226C136.413 25.4196 136.153 26.1696 135.923 27.0727C135.831 27.4247 135.793 27.7308 135.808 27.991C135.839 28.2512 135.877 28.389 135.923 28.4043C136.137 28.4655 136.428 28.4808 136.795 28.4502C137.163 28.4043 137.431 28.3354 137.599 28.2436C137.844 28.1211 138.119 27.9604 138.426 27.7614C138.732 27.5472 139 27.3558 139.229 27.1875C139.306 27.1415 139.398 27.065 139.505 26.9579C139.612 26.8507 139.727 26.7665 139.849 26.7053C139.972 26.5216 140.079 26.4145 140.171 26.3839C140.262 26.3533 140.4 26.3379 140.584 26.3379C140.706 26.3686 140.821 26.4145 140.928 26.4757C141.035 26.5369 141.104 26.5982 141.135 26.6594C141.181 26.7206 141.158 26.7742 141.066 26.8201C141.005 26.8201 140.966 26.8431 140.951 26.889C140.951 26.9196 140.951 26.9349 140.951 26.9349C140.982 26.9961 140.913 27.1262 140.745 27.3252C140.591 27.5089 140.392 27.7155 140.148 27.9451C139.903 28.1747 139.665 28.3737 139.436 28.5421C139.222 28.6951 139.068 28.7717 138.977 28.7717C138.824 28.7717 138.747 28.8176 138.747 28.9094C138.747 28.94 138.632 29.0166 138.403 29.139C138.188 29.2615 137.936 29.3839 137.645 29.5064C137.369 29.6288 137.125 29.713 136.91 29.7589ZM144.153 29.6671C143.954 29.6671 143.794 29.6288 143.671 29.5523C143.564 29.4758 143.426 29.3686 143.258 29.2309C142.967 28.9247 142.76 28.6339 142.638 28.3584C142.516 28.0676 142.477 27.7921 142.523 27.5318C142.569 27.4094 142.584 27.2946 142.569 27.1875C142.569 27.065 142.569 27.0038 142.569 27.0038C142.493 26.9272 142.47 26.8813 142.5 26.866C142.531 26.8354 142.561 26.7895 142.592 26.7283C142.684 26.7283 142.715 26.6441 142.684 26.4757C142.653 26.3533 142.715 26.0854 142.868 25.6721C143.021 25.2589 143.212 24.8685 143.442 24.5012C143.533 24.3481 143.671 24.1491 143.855 23.9042C144.039 23.644 144.237 23.3915 144.452 23.1466C144.681 22.8864 144.888 22.6797 145.072 22.5267C145.454 22.2052 145.791 21.968 146.082 21.8149C146.373 21.6619 146.687 21.5471 147.023 21.4705C147.36 21.394 147.59 21.3557 147.712 21.3557C147.85 21.3557 148.033 21.4782 148.263 21.7231C148.615 21.8761 148.868 22.0598 149.021 22.2741C149.189 22.4884 149.296 22.8022 149.342 23.2155C149.388 23.6746 149.35 24.2027 149.227 24.7997C149.12 25.3813 148.761 26.1084 148.148 26.9808C147.766 27.5318 147.414 27.9451 147.092 28.2206C146.771 28.4808 146.388 28.741 145.944 29.0013C145.623 29.2155 145.332 29.3763 145.072 29.4834C144.811 29.5752 144.505 29.6365 144.153 29.6671ZM146.357 27.2334C146.725 26.8201 147.016 26.4298 147.23 26.0624C147.459 25.6951 147.674 25.2282 147.873 24.6619C147.934 24.4935 147.972 24.2869 147.988 24.042C148.003 23.7818 147.995 23.5445 147.965 23.3303C147.949 23.1007 147.896 22.9706 147.804 22.9399C147.62 22.8328 147.398 22.8022 147.138 22.8481C146.878 22.8787 146.595 23.0241 146.289 23.2843C145.814 23.6823 145.401 24.1798 145.049 24.7767C144.697 25.3583 144.352 26.0242 144.016 26.7742C143.786 27.3252 143.732 27.7691 143.855 28.1058C143.993 28.4273 144.276 28.5421 144.704 28.4502C145.148 28.3431 145.699 27.9375 146.357 27.2334ZM151.857 31.7334C151.658 31.7487 151.474 31.6569 151.306 31.4579C151.138 31.2589 151 30.9681 150.893 30.5855C150.801 30.2181 150.755 29.7819 150.755 29.2768C150.694 28.6492 150.747 27.8533 150.916 26.889C151.084 25.9094 151.337 24.815 151.673 23.6058C151.796 23.1925 151.972 22.6874 152.202 22.0904C152.431 21.4935 152.668 20.9042 152.913 20.3226C153.173 19.7409 153.403 19.2511 153.602 18.8531C153.801 18.4399 153.923 18.2103 153.969 18.1644C154.061 18.195 154.107 18.1261 154.107 17.9577C154.107 17.9271 154.168 17.8123 154.291 17.6133C154.413 17.4143 154.528 17.2001 154.635 16.9705C154.834 16.6796 155.071 16.3965 155.347 16.121C155.622 15.8301 155.906 15.5776 156.196 15.3633C156.503 15.1337 156.778 14.973 157.023 14.8811C157.253 14.7893 157.482 14.7434 157.712 14.7434C158.003 14.7434 158.263 14.8123 158.492 14.95C158.737 15.0878 158.929 15.2791 159.066 15.524C159.204 15.7536 159.273 16.0138 159.273 16.3046C159.273 16.5495 159.219 16.7868 159.112 17.0164C159.066 17.246 158.975 17.4909 158.837 17.7511C158.714 17.996 158.584 18.2256 158.447 18.4399C158.324 18.6389 158.225 18.7919 158.148 18.8991C157.949 19.0062 157.781 19.0521 157.643 19.0368C157.505 19.0215 157.475 18.9603 157.551 18.8531C157.551 18.7919 157.566 18.7154 157.597 18.6235C157.643 18.5317 157.674 18.4322 157.689 18.3251C157.689 18.2945 157.719 18.2026 157.781 18.0496C157.857 17.8965 157.895 17.7434 157.895 17.5904C158.033 17.0393 158.094 16.649 158.079 16.4194C158.079 16.1898 158.01 16.075 157.873 16.075C157.796 16.0597 157.674 16.0903 157.505 16.1669C157.337 16.2434 157.184 16.3352 157.046 16.4424C156.908 16.5342 156.839 16.6184 156.839 16.6949C156.839 16.7409 156.839 16.7715 156.839 16.7868C156.793 16.7715 156.648 16.9016 156.403 17.1771C156.174 17.4373 155.913 17.7587 155.622 18.1414C155.347 18.5087 155.117 18.8455 154.934 19.1516C154.811 19.4118 154.651 19.7562 154.452 20.1848C154.253 20.6134 154.023 21.1644 153.763 21.8379L153.579 22.3889L153.946 22.4348C154.069 22.4501 154.26 22.4425 154.52 22.4119C154.781 22.3659 155.033 22.32 155.278 22.2741C155.799 22.1976 156.166 22.1976 156.38 22.2741C156.594 22.3506 156.755 22.5114 156.862 22.7563C157.031 23.1236 156.908 23.3762 156.495 23.5139C156.082 23.6364 155.293 23.7282 154.13 23.7894C153.885 23.7588 153.671 23.7512 153.487 23.7665C153.319 23.7665 153.204 23.7971 153.143 23.8583C153.082 23.8889 152.997 24.0573 152.89 24.3634C152.783 24.6543 152.668 25.0063 152.546 25.4196C152.439 25.8175 152.355 26.2002 152.293 26.5675C152.171 27.042 152.087 27.5318 152.041 28.037C151.995 28.5268 151.98 28.9859 151.995 29.4145C152.01 29.8278 152.048 30.1492 152.11 30.3788C152.202 30.7462 152.224 31.0447 152.179 31.2742C152.148 31.5038 152.041 31.6569 151.857 31.7334ZM159.296 29.3456C159.174 29.3763 159.013 29.3916 158.814 29.3916C158.615 29.3763 158.439 29.3533 158.286 29.3227C158.148 29.2768 158.08 29.2309 158.08 29.1849C158.08 29.1084 158.041 29.0701 157.965 29.0701C157.965 29.0701 157.926 29.0395 157.85 28.9783C157.789 28.9171 157.689 28.8558 157.551 28.7946C157.414 28.5803 157.345 28.3507 157.345 28.1058C157.345 27.8456 157.414 27.44 157.551 26.889C157.597 26.5063 157.743 26.0624 157.988 25.5573C158.248 25.0369 158.562 24.5088 158.929 23.9731C159.296 23.4374 159.679 22.9552 160.077 22.5267C160.49 22.0981 160.865 21.7843 161.202 21.5853C161.416 21.371 161.677 21.2562 161.983 21.2409C162.289 21.2256 162.58 21.2945 162.855 21.4476C163.008 21.5241 163.161 21.6466 163.314 21.8149C163.467 21.9833 163.613 22.167 163.751 22.366C163.888 22.5649 164.003 22.7639 164.095 22.9629C164.141 23.1313 164.164 23.2843 164.164 23.4221C164.179 23.5445 164.179 23.6976 164.164 23.8813C164.164 24.065 164.141 24.3405 164.095 24.7078C164.018 24.9833 163.95 25.3201 163.888 25.718C163.842 26.116 163.819 26.4604 163.819 26.7512C163.789 27.042 163.819 27.2487 163.911 27.3711C164.018 27.4936 164.171 27.5012 164.37 27.3941C164.554 27.3022 164.73 27.264 164.898 27.2793C165.067 27.2793 165.197 27.3252 165.289 27.417C165.396 27.5089 165.45 27.6466 165.45 27.8303C165.45 28.014 165.358 28.2053 165.174 28.4043C165.006 28.588 164.791 28.7487 164.531 28.8865C164.286 29.0089 164.049 29.0701 163.819 29.0701C163.651 29.0701 163.49 28.9706 163.337 28.7717C163.184 28.5574 163.046 28.3048 162.924 28.014C162.817 27.7079 162.717 27.417 162.626 27.1415L162.488 26.6135L161.5 27.5548C161.302 27.7691 161.103 27.9681 160.904 28.1518C160.72 28.3201 160.605 28.4426 160.559 28.5191C160.483 28.6569 160.337 28.7946 160.123 28.9324C159.924 29.0701 159.648 29.2079 159.296 29.3456ZM159.365 27.991C159.625 27.838 159.924 27.616 160.261 27.3252C160.597 27.0191 160.926 26.69 161.248 26.3379C161.569 25.9706 161.837 25.6339 162.052 25.3277C162.312 24.9757 162.511 24.6466 162.648 24.3405C162.786 24.0343 162.886 23.7435 162.947 23.468C162.886 23.2996 162.786 23.1236 162.648 22.9399C162.511 22.741 162.388 22.6338 162.281 22.6185C161.944 22.6185 161.585 22.8328 161.202 23.2614C160.835 23.6746 160.475 24.1262 160.123 24.616C160.062 24.6925 159.978 24.815 159.87 24.9833C159.763 25.1517 159.656 25.3124 159.549 25.4655C159.457 25.6032 159.396 25.6951 159.365 25.741C159.319 25.8022 159.227 25.9783 159.09 26.2691C158.967 26.5446 158.845 26.8278 158.722 27.1186C158.6 27.3941 158.539 27.5778 158.539 27.6696C158.539 27.7614 158.546 27.8609 158.562 27.9681C158.592 28.0752 158.669 28.1441 158.791 28.1747C158.914 28.2053 159.105 28.1441 159.365 27.991ZM167.708 29.4834C167.631 29.6365 167.517 29.6824 167.364 29.6212C167.226 29.5599 167.111 29.4987 167.019 29.4375C166.912 29.4375 166.82 29.4069 166.744 29.3456C166.667 29.2844 166.614 29.1926 166.583 29.0701C166.552 28.9783 166.545 28.8712 166.56 28.7487C166.575 28.6109 166.606 28.4579 166.652 28.2895C166.713 28.1058 166.774 27.9069 166.836 27.6926C166.958 27.1875 167.042 26.8201 167.088 26.5905C167.134 26.3609 167.18 26.1619 167.226 25.9936C167.272 25.8252 167.333 25.5803 167.41 25.2589C167.532 24.9527 167.631 24.6543 167.708 24.3634C167.785 24.0726 167.899 23.7818 168.052 23.491C168.16 23.093 168.29 22.718 168.443 22.366C168.611 21.9986 168.772 21.6925 168.925 21.4476C168.955 21.4016 169.009 21.3404 169.086 21.2639C169.177 21.1874 169.254 21.1491 169.315 21.1491C169.438 21.0266 169.545 20.9807 169.637 21.0113C169.744 21.0266 169.874 21.0955 170.027 21.218C170.211 21.417 170.279 21.6466 170.234 21.9068C170.203 22.167 170.019 22.5496 169.683 23.0547C169.499 23.5292 169.33 23.9425 169.177 24.2946C169.024 24.6313 168.917 24.9527 168.856 25.2589C169.024 25.0139 169.208 24.792 169.407 24.593C169.621 24.3787 169.797 24.2027 169.935 24.065C170.272 23.7282 170.547 23.4833 170.762 23.3303C170.991 23.1772 171.259 23.0012 171.565 22.8022C171.749 22.6797 171.925 22.5726 172.093 22.4807C172.262 22.3736 172.445 22.2971 172.644 22.2512C172.859 22.2052 173.088 22.2052 173.333 22.2512C173.486 22.2358 173.609 22.2818 173.7 22.3889C173.808 22.4961 173.892 22.6415 173.953 22.8251C174.014 23.0088 174.052 23.2231 174.068 23.468C173.716 23.3915 173.402 23.4068 173.126 23.5139C172.851 23.6058 172.614 23.7206 172.415 23.8583C172.231 23.9961 172.086 24.1032 171.978 24.1798C171.749 24.3328 171.458 24.5395 171.106 24.7997C170.754 25.0446 170.402 25.343 170.05 25.6951C169.774 26.0012 169.537 26.2614 169.338 26.4757C169.154 26.69 169.001 26.8813 168.879 27.0497C168.772 27.2181 168.688 27.3941 168.626 27.5778C168.473 27.9298 168.313 28.3125 168.144 28.7257C167.976 29.139 167.83 29.3916 167.708 29.4834ZM185.188 29.0472C185.112 29.0166 184.997 28.94 184.844 28.8176C184.691 28.6951 184.561 28.4885 184.454 28.1977C184.346 27.8915 184.293 27.4706 184.293 26.9349C184.308 26.4757 184.316 26.116 184.316 25.8558C184.331 25.5956 184.278 25.4655 184.155 25.4655C184.033 25.4655 183.795 25.5879 183.443 25.8328C183.107 26.0624 182.716 26.3762 182.272 26.7742C181.829 27.1721 181.377 27.616 180.918 28.1058C180.765 28.2742 180.612 28.4349 180.459 28.588C180.321 28.7257 180.183 28.8176 180.045 28.8635C179.908 28.8941 179.747 28.8405 179.563 28.7028L179.311 28.4961C179.234 28.4196 179.188 28.3431 179.173 28.2666C179.158 28.1747 179.165 28.0752 179.196 27.9681L179.724 26.4527C179.969 25.9017 180.137 25.5038 180.229 25.2589C180.321 24.9986 180.367 24.8379 180.367 24.7767C180.367 24.7002 180.344 24.6696 180.298 24.6849C180.175 24.7002 179.992 24.7767 179.747 24.9145C179.502 25.0369 179.341 25.1594 179.265 25.2818C179.203 25.2818 179.112 25.3507 178.989 25.4884C178.867 25.6262 178.714 25.7563 178.53 25.8788C178.423 26.0624 178.209 26.2997 177.887 26.5905C177.581 26.8813 177.275 27.1798 176.969 27.4859C176.77 27.6543 176.571 27.8609 176.372 28.1058C176.188 28.3507 176.027 28.565 175.89 28.7487C175.767 28.9324 175.683 29.0242 175.637 29.0242C175.438 29.0242 175.254 28.9706 175.086 28.8635C174.933 28.7564 174.818 28.5803 174.742 28.3354C174.619 28.0752 174.619 27.7155 174.742 27.2563C174.864 26.7818 175.002 26.1696 175.155 25.4196C175.216 25.19 175.254 25.0216 175.27 24.9145C175.285 24.8073 175.308 24.7002 175.339 24.593C175.385 24.4706 175.453 24.2869 175.545 24.042C175.652 23.7971 175.813 23.4297 176.027 22.9399C176.135 22.6491 176.196 22.4348 176.211 22.2971C176.242 22.144 176.257 22.0369 176.257 21.9756C176.257 21.8226 176.295 21.6925 176.372 21.5853C176.464 21.4782 176.571 21.4016 176.693 21.3557C176.816 21.3098 176.93 21.3022 177.038 21.3328C177.206 21.3634 177.351 21.4476 177.474 21.5853C177.612 21.7231 177.688 21.9144 177.703 22.1593C177.719 22.343 177.703 22.5114 177.658 22.6644C177.612 22.8022 177.566 22.9323 177.52 23.0547L177.267 23.6746C177.191 23.843 177.091 24.0879 176.969 24.4093C176.846 24.7308 176.739 25.0293 176.647 25.3048C176.555 25.565 176.51 25.718 176.51 25.764C176.525 25.8099 176.578 25.8022 176.67 25.741C176.762 25.6645 176.877 25.565 177.015 25.4425C177.168 25.3048 177.321 25.1747 177.474 25.0522C177.795 24.7461 178.155 24.4553 178.553 24.1798C178.966 23.8889 179.357 23.644 179.724 23.445C180.091 23.2461 180.374 23.116 180.573 23.0547C180.834 23.0547 181.01 23.1007 181.101 23.1925C181.209 23.2843 181.385 23.4527 181.63 23.6976C181.737 23.8047 181.798 23.9425 181.813 24.1109C181.829 24.2792 181.821 24.44 181.79 24.593C181.775 24.6543 181.729 24.8073 181.653 25.0522C181.576 25.2818 181.499 25.5038 181.423 25.718C181.362 25.9323 181.331 26.0395 181.331 26.0395C181.331 26.0395 181.415 25.9629 181.584 25.8099C181.767 25.6568 181.966 25.4961 182.181 25.3277C182.395 25.1441 182.556 25.0063 182.663 24.9145C183.26 24.4553 183.78 24.1644 184.224 24.042C184.668 23.9195 185.028 24.0803 185.303 24.5241C185.487 24.6925 185.579 24.8762 185.579 25.0752C185.594 25.2742 185.602 25.6186 185.602 26.1084C185.617 26.3073 185.632 26.5446 185.647 26.8201C185.663 27.0956 185.678 27.3482 185.693 27.5778C185.724 27.7921 185.755 27.9222 185.785 27.9681C185.831 28.0293 185.915 28.0829 186.038 28.1288C186.176 28.1594 186.352 28.19 186.566 28.2206C186.795 28.2512 186.933 28.3507 186.979 28.5191C187.025 28.6875 186.926 28.8482 186.681 29.0013C186.451 29.139 186.198 29.2002 185.923 29.1849C185.647 29.1696 185.403 29.1237 185.188 29.0472Z" fill="white"/>
</g>
<path d="M4.24311 31.0313C7.4828 37.6724 15.3351 40.5565 22.0597 37.7096L18.8288 31.0864L18.6677 30.7674C15.3351 24.3536 7.62731 21.6055 1.0114 24.4065L4.24311 31.0313Z" stroke="white" stroke-width="1.5"/>
<path d="M21.5435 37.8396C21.5435 37.8396 17.3036 37.1612 13.403 33.7694" stroke="white" stroke-width="1.5" stroke-linecap="round"/>
<path d="M42.5713 31.0313C39.3317 37.6724 31.4794 40.5565 24.7548 37.7096L27.9856 31.0864L28.1467 30.7674C31.4793 24.3536 39.1871 21.6055 45.8031 24.4065L42.5713 31.0313Z" stroke="white" stroke-width="1.5"/>
<path d="M25.272 37.8396C25.272 37.8396 29.5118 37.1612 33.4124 33.7694" stroke="white" stroke-width="1.5" stroke-linecap="round"/>
<path d="M36.6207 21.7905C35.9987 18.6693 34.3265 15.8553 31.8823 13.8169C29.4382 11.7785 26.3697 10.6387 23.1876 10.5872C20.0055 10.5358 16.9017 11.5757 14.3929 13.5339C11.8841 15.4921 10.1217 18.2505 9.39899 21.3499" stroke="white" stroke-width="1.5" stroke-linecap="round"/>
<path d="M29.4062 24.3874C29.1302 23.0026 28.3883 21.7541 27.3039 20.8497C26.2195 19.9453 24.8581 19.4396 23.4462 19.4168C22.0344 19.3939 20.6573 19.8553 19.5442 20.7241C18.4311 21.593 17.6491 22.8168 17.3285 24.1919" stroke="white" stroke-width="1.5" stroke-linecap="round"/>
<line x1="23.1476" y1="0.74997" x2="23.2383" y2="6.71209" stroke="white" stroke-width="1.5" stroke-linecap="round"/>
<line x1="4.57824" y1="10.1237" x2="9.4628" y2="13.5439" stroke="white" stroke-width="1.5" stroke-linecap="round"/>
<line x1="0.75" y1="-0.75" x2="6.71295" y2="-0.75" transform="matrix(-0.819152 0.573576 0.573576 0.819152 42.0664 10.187)" stroke="white" stroke-width="1.5" stroke-linecap="round"/>
<line x1="12.942" y1="6.45054" x2="14.4736" y2="9.10342" stroke="white" stroke-width="1.5" stroke-linecap="round"/>
<line x1="0.75" y1="-0.75" x2="3.81327" y2="-0.75" transform="matrix(-0.5 0.866025 0.866025 0.5 33.8262 6.1167)" stroke="white" stroke-width="1.5" stroke-linecap="round"/>
<line x1="39.6338" y1="19.6083" x2="42.6302" y2="18.9714" stroke="white" stroke-width="1.5" stroke-linecap="round"/>
<line x1="0.75" y1="-0.75" x2="3.81327" y2="-0.75" transform="matrix(-0.978148 -0.207912 -0.207912 0.978148 7.17676 20.2937)" stroke="white" stroke-width="1.5" stroke-linecap="round"/>
<defs>
<filter id="filter0_d_100_502" x="55.8" y="12.5415" width="135.456" height="26.0942" filterUnits="userSpaceOnUse" color-interpolation-filters="sRGB">
<feFlood flood-opacity="0" result="BackgroundImageFix"/>
<feColorMatrix in="SourceAlpha" type="matrix" values="0 0 0 0 0 0 0 0 0 0 0 0 0 0 0 0 0 0 127 0" result="hardAlpha"/>
<feOffset dy="2.6716"/>
<feGaussianBlur stdDeviation="2.10388"/>
<feComposite in2="hardAlpha" operator="out"/>
<feColorMatrix type="matrix" values="0 0 0 0 0 0 0 0 0 0 0 0 0 0 0 0 0 0 1 0"/>
<feBlend mode="normal" in2="BackgroundImageFix" result="effect1_dropShadow_100_502"/>
<feBlend mode="normal" in="SourceGraphic" in2="effect1_dropShadow_100_502" result="shape"/>
</filter>
</defs>
</svg>
