<svg width="59" height="39" viewBox="0 0 59 39" fill="none" xmlns="http://www.w3.org/2000/svg">
<path d="M8.5415 13.0046V20.3325H9.14828V23.0397H10.1051C10.8675 23.0397 11.2486 23.3586 11.2486 23.9965C11.2486 24.3077 11.1397 24.5566 10.9219 24.7433C10.7197 24.9144 10.4396 25 10.0818 25H5.25092V23.0397H7.04791V20.3325H7.65468V13.0046H7.04791V9.76065H5.69434V9.36391H3.36059V9.76065H2.52044V10.6241C2.52044 10.9975 2.42709 11.3009 2.24039 11.5343C2.05369 11.7521 1.81254 11.861 1.51693 11.861C1.20577 11.861 0.964614 11.7521 0.793473 11.5343C0.622332 11.3009 0.536761 10.9898 0.536761 10.6008V9.20055C0.536761 8.67157 0.622332 8.31373 0.793473 8.12703C0.980173 7.94033 1.33801 7.84698 1.867 7.84698H14.4459C14.9282 7.84698 15.2549 7.94033 15.426 8.12703C15.6127 8.29817 15.7061 8.60934 15.7061 9.06053V11.8844H13.7691V9.76065H13.0923V9.41059H10.7586V9.78399H9.14828V13.0046H8.5415ZM23.6018 21.8261C23.6018 22.0439 23.6796 22.2306 23.8352 22.3862C23.9908 22.5262 24.1852 22.5962 24.4186 22.5962C24.652 22.5962 24.8465 22.5262 25.0021 22.3862C25.1732 22.2306 25.2588 22.0439 25.2588 21.8261C25.2588 21.6083 25.1732 21.4294 25.0021 21.2893C24.8465 21.1338 24.652 21.056 24.4186 21.056C24.1852 21.056 23.9908 21.1338 23.8352 21.2893C23.6796 21.4294 23.6018 21.6083 23.6018 21.8261ZM22.855 12.4678C22.2794 12.4678 21.6804 12.5767 21.058 12.7945C20.4357 12.9968 19.8289 13.2846 19.2377 13.658C18.6621 14.0314 18.1175 14.4748 17.6041 14.9882C17.1062 15.4861 16.6861 16.0229 16.3439 16.5985C16.0171 17.1586 15.8149 17.6876 15.7371 18.1855C15.6749 18.6833 15.7215 19.119 15.8771 19.4924C16.0327 19.8502 16.2972 20.138 16.6706 20.3558C17.044 20.5737 17.5107 20.6826 18.0708 20.6826C18.6309 20.6826 19.2222 20.5737 19.8445 20.3558C20.4668 20.138 21.0658 19.8424 21.6415 19.469C22.2327 19.0956 22.7772 18.66 23.2751 18.1621C23.7885 17.6643 24.2086 17.1353 24.5353 16.5752C24.862 15.9995 25.0643 15.4628 25.1421 14.9649C25.2199 14.467 25.181 14.0314 25.0254 13.658C24.8854 13.2846 24.6287 12.9968 24.2553 12.7945C23.8819 12.5767 23.4151 12.4678 22.855 12.4678ZM14.9903 18.3488C14.9903 17.3842 15.1614 16.4896 15.5037 15.665C15.846 14.8404 16.3205 14.1325 16.9273 13.5413C17.5341 12.9345 18.2498 12.4678 19.0743 12.1411C19.9145 11.7988 20.8169 11.6276 21.7815 11.6276C22.7617 11.6276 23.664 11.7988 24.4886 12.1411C25.3132 12.4678 26.0289 12.9345 26.6357 13.5413C27.2425 14.1325 27.717 14.8404 28.0593 15.665C28.4015 16.4741 28.5727 17.3609 28.5727 18.3255C28.5727 19.2901 28.4015 20.1847 28.0593 21.0093C27.717 21.8183 27.2425 22.5185 26.6357 23.1097C26.0289 23.7009 25.3132 24.1676 24.4886 24.5099C23.664 24.8366 22.7617 25 21.7815 25C20.8169 25 19.9145 24.8366 19.0743 24.5099C18.2498 24.1676 17.5341 23.7009 16.9273 23.1097C16.3205 22.5185 15.846 21.8183 15.5037 21.0093C15.1614 20.2003 14.9903 19.3134 14.9903 18.3488ZM32.0162 23.1097H33.1131V25H31.2694C30.7716 25 30.4215 24.9144 30.2193 24.7433C30.0326 24.5566 29.9392 24.2143 29.9392 23.7164V20.3325H30.476V16.4118H29.9859C30.0637 15.8673 30.1804 15.3928 30.3359 14.9882C30.4915 14.5837 30.7249 14.1948 31.0361 13.8214C31.4873 13.2302 32.0629 12.7712 32.763 12.4445C33.4787 12.1177 34.2333 11.9544 35.0268 11.9544C35.7113 11.9544 36.3648 12.0866 36.9871 12.3511C37.6094 12.6156 38.154 12.9734 38.6207 13.4246C39.103 13.8758 39.4842 14.397 39.7643 14.9882C40.0443 15.5795 40.1843 16.2018 40.1843 16.8552C40.1843 17.5865 39.881 17.9521 39.2742 17.9521C39.0875 17.9521 38.9241 17.921 38.7841 17.8587C38.6907 17.7965 38.613 17.7421 38.5507 17.6954C38.504 17.6331 38.4496 17.5554 38.3874 17.462C38.3407 17.3687 38.2862 17.2364 38.224 17.0653C38.1773 16.8941 38.1073 16.6608 38.014 16.3651C37.6561 15.2916 37.0571 14.5604 36.217 14.1714V13.3313H33.9999V14.1014C33.7043 14.1948 33.432 14.3348 33.1831 14.5215C32.9497 14.6926 32.7475 14.8871 32.5763 15.1049C32.4207 15.3227 32.3041 15.5406 32.2263 15.7584C32.1485 15.9762 32.094 16.2329 32.0629 16.5285H31.5495V20.3325H32.0162V23.1097ZM49.5388 22.1062C49.5388 22.3706 49.6166 22.5885 49.7722 22.7596C49.9433 22.9307 50.1534 23.0163 50.4023 23.0163C50.6512 23.0163 50.8613 22.9307 51.0324 22.7596C51.2036 22.5885 51.2891 22.3706 51.2891 22.1062C51.2891 21.8417 51.2036 21.6239 51.0324 21.4527C50.8613 21.2816 50.6512 21.196 50.4023 21.196C50.1534 21.196 49.9433 21.2816 49.7722 21.4527C49.6166 21.6239 49.5388 21.8417 49.5388 22.1062ZM42.8176 16.9486C42.7087 17.1353 42.6232 17.3142 42.5609 17.4853C42.4987 17.6565 42.4442 17.8276 42.3976 17.9988H41.6274C41.7208 17.1431 41.9542 16.3496 42.3276 15.6183C42.7165 14.8716 43.2144 14.2337 43.8211 13.7047C44.4279 13.1601 45.1203 12.7401 45.8982 12.4445C46.6917 12.1333 47.5396 11.9777 48.442 11.9777C49.6711 11.9777 50.799 12.2578 51.8259 12.8179C52.8527 13.378 53.6618 14.1481 54.253 15.1283C54.4241 15.4239 54.5642 15.7039 54.6731 15.9684C54.782 16.2329 54.8675 16.513 54.9298 16.8086C55.0076 17.0886 55.062 17.392 55.0931 17.7187C55.1242 18.0454 55.1398 18.4188 55.1398 18.8389V23.0863L56.1433 23.1097C56.4545 23.1097 56.7034 23.1952 56.8901 23.3664C57.0924 23.5375 57.1935 23.7631 57.1935 24.0432C57.1935 24.3543 57.1002 24.5955 56.9135 24.7666C56.7268 24.9222 56.4778 25 56.1667 25H54.393C54.0818 25 53.8796 24.9922 53.7862 24.9767C53.7084 24.9455 53.6151 24.8755 53.5062 24.7666C53.4128 24.6888 53.3506 24.611 53.3195 24.5333C53.3039 24.4399 53.2884 24.2765 53.2728 24.0432L53.2495 22.5029C52.2071 24.3854 50.5268 25.3267 48.2086 25.3267C47.3062 25.3267 46.4661 25.1789 45.6881 24.8833C44.9102 24.5877 44.2257 24.1754 43.6344 23.6464C43.0588 23.1019 42.592 22.4562 42.2342 21.7094C41.8764 20.9626 41.6663 20.1458 41.6041 19.259H42.3042C42.3976 19.8035 42.6543 20.2469 43.0744 20.5892C43.51 20.9159 44.1012 21.0793 44.848 21.0793C45.4548 21.0793 46.0771 20.9782 46.715 20.7759C47.3529 20.5581 47.9597 20.2625 48.5353 19.8891C49.111 19.5157 49.64 19.0723 50.1223 18.5589C50.6201 18.0454 51.0246 17.4931 51.3358 16.9019C51.647 16.3107 51.8259 15.7584 51.8726 15.2449C51.9348 14.7315 51.8726 14.2881 51.6859 13.9147C51.5147 13.5413 51.2269 13.2457 50.8224 13.0279C50.4334 12.8101 49.9356 12.7012 49.3288 12.7012C48.722 12.7012 48.0997 12.8101 47.4618 13.0279C46.8395 13.2457 46.2327 13.5413 45.6415 13.9147C45.0658 14.2881 44.5291 14.7393 44.0312 15.2683C43.5489 15.7817 43.1444 16.3418 42.8176 16.9486Z" fill="white"/>
<path d="M5.70526 31.4082L5.87619 32.6669L5.53433 32.7057L5.20801 31.8278C5.16658 31.8174 5.11737 31.8122 5.06039 31.8122C5.0086 31.8071 4.96198 31.8045 4.92054 31.8045H4.64084C4.58904 31.8045 4.51912 31.8045 4.43107 31.8045C4.34301 31.8045 4.26273 31.8071 4.19021 31.8122C4.19021 31.8537 4.18762 31.9521 4.18244 32.1075C4.18244 32.2577 4.18244 32.4338 4.18244 32.6358C4.18244 32.8378 4.18244 33.032 4.18244 33.2185V34.2674C4.18244 34.5989 4.18503 34.8864 4.19021 35.1298C4.19539 35.3681 4.19798 35.5235 4.19798 35.596L4.85839 35.6892L4.83508 36H2.85386L2.83832 35.6892L3.49096 35.596C3.49096 35.5235 3.49355 35.3681 3.49873 35.1298C3.50391 34.8864 3.5065 34.5989 3.5065 34.2674V33.2185C3.5065 33.032 3.5065 32.8378 3.5065 32.6358C3.5065 32.4338 3.5065 32.2577 3.5065 32.1075C3.5065 31.9521 3.50391 31.8537 3.49873 31.8122C3.43139 31.8071 3.3537 31.8045 3.26564 31.8045C3.18277 31.8045 3.11284 31.8045 3.05587 31.8045H2.75286C2.71142 31.8045 2.6648 31.8071 2.61301 31.8122C2.56121 31.8122 2.51459 31.8174 2.47316 31.8278L2.15461 32.7135L1.80498 32.6669L1.97591 31.4082C2.03807 31.4134 2.10022 31.4186 2.16238 31.4238C2.22453 31.4238 2.28669 31.4264 2.34884 31.4315C2.411 31.4315 2.47316 31.4341 2.53531 31.4393C2.60265 31.4393 2.66739 31.4393 2.72955 31.4393H4.95162C5.01378 31.4393 5.07593 31.4393 5.13809 31.4393C5.20024 31.4341 5.2624 31.4315 5.32456 31.4315C5.38671 31.4264 5.44887 31.4238 5.51102 31.4238C5.57836 31.4186 5.6431 31.4134 5.70526 31.4082ZM6.26466 36L6.24135 35.7203L6.72306 35.6037C6.72824 35.5778 6.73342 35.5312 6.7386 35.4639C6.74378 35.3966 6.74637 35.3059 6.74637 35.192C6.75155 35.078 6.75414 34.9382 6.75414 34.7724L6.76191 34.1664C6.76191 33.9955 6.75414 33.8271 6.7386 33.6614C6.72824 33.4956 6.71529 33.3635 6.69975 33.2651L6.20251 33.1564V32.9L7.24362 32.6125L7.35239 32.7213L7.32131 33.3739L7.34462 33.3817C7.50001 33.0813 7.65799 32.8792 7.81856 32.7757C7.97913 32.6669 8.12934 32.6125 8.26919 32.6125C8.38832 32.6125 8.48673 32.6436 8.56443 32.7057C8.6473 32.7627 8.68874 32.8508 8.68874 32.9699C8.68874 33.0942 8.64471 33.19 8.55666 33.2574C8.47378 33.3195 8.3676 33.3506 8.23811 33.3506C8.14488 33.3506 8.05423 33.3299 7.96618 33.2884C7.8833 33.247 7.80302 33.19 7.72532 33.1175L7.86517 33.1641C7.76676 33.2263 7.67353 33.3143 7.58547 33.4283C7.49742 33.5371 7.41713 33.6743 7.34462 33.8401L7.35239 34.5626C7.35757 34.6921 7.36275 34.8268 7.36793 34.9666C7.37311 35.1065 7.37829 35.2334 7.38347 35.3473C7.38865 35.4561 7.39383 35.5416 7.39901 35.6037L8.07495 35.7047L8.05941 36H6.26466ZM10.2038 36.0621C9.9966 36.0621 9.81272 36.0207 9.65216 35.9378C9.49159 35.855 9.36468 35.7488 9.27145 35.6193C9.1834 35.4898 9.13937 35.3551 9.13937 35.2153C9.13937 35.0392 9.19635 34.8941 9.3103 34.7802C9.42425 34.6662 9.61072 34.5678 9.8697 34.4849L11.0507 34.0887V33.6924C11.0507 33.563 11.0118 33.4464 10.9341 33.3428C10.8564 33.2341 10.7528 33.1486 10.6233 33.0864C10.4938 33.0243 10.3488 32.9932 10.1882 32.9932C10.0588 32.9932 9.9707 33.0217 9.92409 33.0787C9.87747 33.1305 9.84898 33.2366 9.83862 33.3972L9.82308 33.7235C9.63662 33.765 9.47864 33.7598 9.34915 33.708C9.21965 33.651 9.15491 33.5604 9.15491 33.4361C9.15491 33.348 9.19117 33.2599 9.26368 33.1719C9.34138 33.0838 9.44238 33.001 9.56669 32.9233C9.691 32.8404 9.82567 32.7705 9.9707 32.7135C10.1157 32.6565 10.2582 32.6177 10.398 32.597C10.7813 32.597 11.0869 32.698 11.3148 32.9C11.5479 33.102 11.667 33.3661 11.6722 33.6924L11.6567 34.9977C11.6567 35.0961 11.6593 35.192 11.6644 35.2852C11.6748 35.3784 11.6878 35.4484 11.7033 35.495L12.2005 35.5882V35.8291L11.8198 35.9689C11.7473 35.9948 11.68 36.0155 11.6178 36.0311C11.5557 36.0518 11.5039 36.0621 11.4624 36.0621C11.3019 36.0621 11.1983 35.9715 11.1517 35.7902L11.0662 35.4872H11.1827C11.0118 35.6788 10.8461 35.8239 10.6855 35.9223C10.5301 36.0155 10.3695 36.0621 10.2038 36.0621ZM10.4136 35.6037C10.5327 35.6037 10.6441 35.5778 10.7477 35.526C10.8512 35.4691 10.9522 35.3836 11.0507 35.2697V34.4539L10.1805 34.6869C10.0562 34.718 9.96552 34.7672 9.90855 34.8346C9.85675 34.9019 9.83085 34.9874 9.83085 35.091C9.83085 35.2204 9.88783 35.3396 10.0018 35.4484C10.1209 35.5519 10.2582 35.6037 10.4136 35.6037ZM14.0341 36.0311L12.6589 33.0554L12.2938 32.9388L12.3093 32.6591H13.8244L13.8399 32.9388L13.3582 33.0554L14.4226 35.4173L14.2206 35.425L15.1996 33.0554L14.7179 32.9388L14.7334 32.6591H16.0231L16.0387 32.9388L15.6735 33.0554L14.2672 36.0311H14.0341ZM17.849 36.0621C17.5485 36.0621 17.2766 35.9948 17.0332 35.8601C16.7949 35.7255 16.6032 35.5338 16.4582 35.2852C16.3184 35.0314 16.2484 34.7336 16.2484 34.3917C16.2484 34.0239 16.3235 33.7054 16.4738 33.4361C16.624 33.1667 16.8208 32.9595 17.0642 32.8145C17.3077 32.6643 17.5693 32.5918 17.849 32.597C18.253 32.6021 18.5689 32.7368 18.7968 33.001C19.0247 33.2651 19.1387 33.6381 19.1387 34.1198V34.2596H16.7535V33.9178H18.6259L18.5404 34.0188V33.8556C18.5404 33.5552 18.4731 33.3247 18.3384 33.1641C18.2038 33.0036 18.0199 32.9233 17.7868 32.9233C17.6418 32.9233 17.5019 32.9673 17.3672 33.0554C17.2326 33.1382 17.1238 33.2677 17.0409 33.4438C16.9581 33.6148 16.9166 33.8323 16.9166 34.0965V34.1897C16.9166 34.6144 17.0202 34.9459 17.2274 35.1842C17.4398 35.4225 17.7117 35.5416 18.0432 35.5416C18.2245 35.5416 18.3876 35.5053 18.5327 35.4328C18.6777 35.3603 18.8175 35.2438 18.9522 35.0832L19.1465 35.2619C19.0014 35.5312 18.8175 35.7332 18.5948 35.8679C18.3721 35.9974 18.1235 36.0621 17.849 36.0621ZM19.6359 36L19.6204 35.7125L20.1254 35.6037C20.1358 35.5519 20.1435 35.4665 20.1487 35.3473C20.1539 35.2282 20.1565 35.0702 20.1565 34.8734C20.1617 34.6766 20.1643 34.4357 20.1643 34.1508V33.1797C20.1643 32.9828 20.1617 32.7808 20.1565 32.5736C20.1565 32.3665 20.1539 32.1722 20.1487 31.9909C20.1487 31.8045 20.1461 31.6465 20.141 31.517C20.141 31.3823 20.1384 31.2943 20.1332 31.2528L19.5582 31.1751L19.5427 30.9265L20.6537 30.608L20.8014 30.7167C20.7962 30.9343 20.791 31.1518 20.7858 31.3694C20.7806 31.5869 20.7755 31.8278 20.7703 32.0919C20.7703 32.3561 20.7703 32.6746 20.7703 33.0476L20.7625 34.2985C20.7625 34.6041 20.7651 34.8812 20.7703 35.1298C20.7806 35.3732 20.791 35.5312 20.8014 35.6037L21.3064 35.7125L21.2908 36H19.6359ZM24.9425 36.0621C24.5644 36.0621 24.2536 36.0078 24.0102 35.899C23.7667 35.785 23.5854 35.6374 23.4663 35.4561C23.3472 35.2697 23.2876 35.0702 23.2876 34.8579C23.2876 34.6869 23.329 34.5108 23.4119 34.3295C23.5 34.1483 23.6502 33.967 23.8625 33.7857C24.0801 33.5992 24.3831 33.4205 24.7716 33.2496C25.0772 33.0942 25.3206 32.9414 25.5019 32.7912C25.6832 32.641 25.8127 32.4882 25.8904 32.3328C25.9732 32.1774 26.0147 32.0117 26.0147 31.8355C26.0147 31.6076 25.9577 31.4367 25.8437 31.3228C25.735 31.2088 25.6055 31.1518 25.4553 31.1518C25.2636 31.1518 25.1005 31.2243 24.9658 31.3694C24.8363 31.5144 24.7716 31.7268 24.7716 32.0065C24.7716 32.1722 24.7923 32.3328 24.8337 32.4882C24.8752 32.6436 24.9347 32.8015 25.0124 32.9621C25.0901 33.1175 25.1859 33.2833 25.2999 33.4594C25.419 33.6355 25.5537 33.8297 25.7039 34.0421C25.9629 34.3995 26.2063 34.6947 26.4342 34.9278C26.6621 35.1557 26.8849 35.3266 27.1024 35.4406C27.3199 35.5494 27.5375 35.6037 27.755 35.6037C27.8949 35.6037 28.0192 35.5856 28.128 35.5494C28.2419 35.5079 28.3611 35.4458 28.4854 35.3629L28.6252 35.5571C28.4957 35.7177 28.3377 35.842 28.1513 35.9301C27.9648 36.0181 27.7524 36.0621 27.5142 36.0621C27.2345 36.0621 26.9703 36.0052 26.7217 35.8912C26.4731 35.7773 26.227 35.6012 25.9836 35.3629C25.7402 35.1246 25.4838 34.8216 25.2144 34.4539C24.9813 34.1275 24.7845 33.8401 24.6239 33.5914C24.4685 33.3428 24.3494 33.1071 24.2665 32.8844C24.1888 32.6565 24.15 32.4183 24.15 32.1696C24.15 31.9158 24.2044 31.6879 24.3132 31.4859C24.4271 31.2787 24.5851 31.1156 24.7871 30.9964C24.9891 30.8721 25.2196 30.81 25.4786 30.81C25.7997 30.81 26.0639 30.898 26.2711 31.0741C26.4783 31.2451 26.5818 31.4833 26.5818 31.7889C26.5818 31.9961 26.5301 32.1929 26.4265 32.3794C26.3229 32.5659 26.1493 32.7523 25.9059 32.9388C25.6625 33.1253 25.331 33.3247 24.9114 33.5371C24.5644 33.7183 24.3261 33.9022 24.1966 34.0887C24.0671 34.27 24.0024 34.4746 24.0024 34.7025C24.0024 34.8838 24.049 35.0443 24.1422 35.1842C24.2355 35.3189 24.3675 35.425 24.5385 35.5027C24.7146 35.5753 24.9166 35.6115 25.1445 35.6115C25.4242 35.6115 25.678 35.5571 25.9059 35.4484C26.1338 35.3344 26.3436 35.1453 26.5352 34.8812C26.7269 34.617 26.903 34.2622 27.0636 33.8168L26.5197 33.7313L26.5352 33.4361L28.1591 33.4283L28.1746 33.7235L27.6307 33.8168C27.3769 34.3088 27.1179 34.7232 26.8538 35.0599C26.5896 35.3914 26.3021 35.6426 25.9914 35.8135C25.6806 35.9793 25.331 36.0621 24.9425 36.0621ZM34.0561 31.4082L34.227 32.6669L33.8852 32.7057L33.5588 31.8278C33.5174 31.8174 33.4682 31.8122 33.4112 31.8122C33.3594 31.8071 33.3128 31.8045 33.2714 31.8045H32.9917C32.9399 31.8045 32.8699 31.8045 32.7819 31.8045C32.6938 31.8045 32.6136 31.8071 32.541 31.8122C32.541 31.8537 32.5384 31.9521 32.5333 32.1075C32.5333 32.2577 32.5333 32.4338 32.5333 32.6358C32.5333 32.8378 32.5333 33.032 32.5333 33.2185V34.2674C32.5333 34.5989 32.5359 34.8864 32.541 35.1298C32.5462 35.3681 32.5488 35.5235 32.5488 35.596L33.2092 35.6892L33.1859 36H31.2047L31.1891 35.6892L31.8418 35.596C31.8418 35.5235 31.8444 35.3681 31.8496 35.1298C31.8547 34.8864 31.8573 34.5989 31.8573 34.2674V33.2185C31.8573 33.032 31.8573 32.8378 31.8573 32.6358C31.8573 32.4338 31.8573 32.2577 31.8573 32.1075C31.8573 31.9521 31.8547 31.8537 31.8496 31.8122C31.7822 31.8071 31.7045 31.8045 31.6165 31.8045C31.5336 31.8045 31.4637 31.8045 31.4067 31.8045H31.1037C31.0622 31.8045 31.0156 31.8071 30.9638 31.8122C30.912 31.8122 30.8654 31.8174 30.824 31.8278L30.5054 32.7135L30.1558 32.6669L30.3267 31.4082C30.3889 31.4134 30.451 31.4186 30.5132 31.4238C30.5754 31.4238 30.6375 31.4264 30.6997 31.4315C30.7618 31.4315 30.824 31.4341 30.8861 31.4393C30.9535 31.4393 31.0182 31.4393 31.0804 31.4393H33.3024C33.3646 31.4393 33.4268 31.4393 33.4889 31.4393C33.5511 31.4341 33.6132 31.4315 33.6754 31.4315C33.7375 31.4264 33.7997 31.4238 33.8618 31.4238C33.9292 31.4186 33.9939 31.4134 34.0561 31.4082ZM36.0451 36.0621C35.7084 36.0621 35.4132 35.9896 35.1594 35.8446C34.9107 35.6996 34.7165 35.4976 34.5766 35.2386C34.4368 34.9744 34.3669 34.674 34.3669 34.3373C34.3669 33.9851 34.4446 33.6795 34.5999 33.4205C34.7553 33.1615 34.9625 32.9595 35.2215 32.8145C35.4805 32.6695 35.7654 32.597 36.0762 32.597C36.3973 32.597 36.677 32.6695 36.9153 32.8145C37.1587 32.9543 37.3452 33.1538 37.4747 33.4127C37.6093 33.6666 37.6767 33.9644 37.6767 34.3062C37.6767 34.6326 37.6041 34.9278 37.4591 35.192C37.3141 35.4561 37.1173 35.6685 36.8686 35.8291C36.6252 35.9844 36.3507 36.0621 36.0451 36.0621ZM36.1228 35.697C36.2989 35.697 36.4517 35.6452 36.5812 35.5416C36.7107 35.4328 36.8117 35.2852 36.8842 35.0987C36.9567 34.9071 36.9929 34.6895 36.9929 34.4461C36.9929 34.0006 36.8997 33.6407 36.7132 33.3661C36.532 33.0864 36.2911 32.9466 35.9907 32.9466C35.711 32.9466 35.4857 33.0631 35.3147 33.2962C35.149 33.5293 35.0661 33.8375 35.0661 34.2208C35.0661 34.5108 35.1101 34.7672 35.1982 34.99C35.2914 35.2127 35.4183 35.3862 35.5789 35.5105C35.7395 35.6348 35.9208 35.697 36.1228 35.697ZM41.5303 35.4561L42.0198 35.5804V35.8368L41.0098 36.0854L40.8932 35.9844L40.901 35.495L40.8777 35.4872C40.7275 35.6996 40.5721 35.8498 40.4115 35.9378C40.2561 36.0207 40.0878 36.0621 39.9065 36.0621C39.5595 36.0621 39.2694 35.956 39.0363 35.7436C38.8032 35.526 38.6867 35.2023 38.6867 34.7724V34.1042C38.6867 33.9592 38.6815 33.8194 38.6712 33.6847C38.666 33.5448 38.6582 33.405 38.6478 33.2651L38.1195 33.1564V32.9L39.1762 32.6125L39.316 32.7368C39.3057 32.8974 39.2979 33.0683 39.2927 33.2496C39.2875 33.4309 39.2849 33.6199 39.2849 33.8168L39.2772 34.6714C39.2772 34.9925 39.3523 35.223 39.5025 35.3629C39.6527 35.4976 39.8443 35.5649 40.0774 35.5649C40.2173 35.5649 40.3597 35.5286 40.5048 35.4561C40.6498 35.3836 40.7767 35.2593 40.8855 35.0832V34.1819C40.8855 34.068 40.8829 33.9566 40.8777 33.8478C40.8777 33.7339 40.8751 33.6277 40.8699 33.5293C40.8647 33.4257 40.857 33.3376 40.8466 33.2651L40.2794 33.1564V32.9L41.3749 32.6125L41.4915 32.7213C41.4863 32.8663 41.4811 32.9958 41.4759 33.1097C41.4759 33.2237 41.4759 33.3376 41.4759 33.4516C41.4759 33.5604 41.4759 33.6847 41.4759 33.8245V34.3762C41.4759 34.661 41.4811 34.8915 41.4915 35.0676C41.507 35.2386 41.52 35.3681 41.5303 35.4561ZM42.4704 36L42.4471 35.7203L42.9288 35.6037C42.934 35.5778 42.9392 35.5312 42.9444 35.4639C42.9496 35.3966 42.9521 35.3059 42.9521 35.192C42.9573 35.078 42.9599 34.9382 42.9599 34.7724L42.9677 34.1664C42.9677 33.9955 42.9599 33.8271 42.9444 33.6614C42.934 33.4956 42.9211 33.3635 42.9055 33.2651L42.4083 33.1564V32.9L43.4494 32.6125L43.5582 32.7213L43.5271 33.3739L43.5504 33.3817C43.7058 33.0813 43.8638 32.8792 44.0243 32.7757C44.1849 32.6669 44.3351 32.6125 44.475 32.6125C44.5941 32.6125 44.6925 32.6436 44.7702 32.7057C44.8531 32.7627 44.8945 32.8508 44.8945 32.9699C44.8945 33.0942 44.8505 33.19 44.7624 33.2574C44.6796 33.3195 44.5734 33.3506 44.4439 33.3506C44.3506 33.3506 44.26 33.3299 44.172 33.2884C44.0891 33.247 44.0088 33.19 43.9311 33.1175L44.0709 33.1641C43.9725 33.2263 43.8793 33.3143 43.7912 33.4283C43.7032 33.5371 43.6229 33.6743 43.5504 33.8401L43.5582 34.5626C43.5633 34.6921 43.5685 34.8268 43.5737 34.9666C43.5789 35.1065 43.5841 35.2334 43.5892 35.3473C43.5944 35.4561 43.5996 35.5416 43.6048 35.6037L44.2807 35.7047L44.2652 36H42.4704ZM45.2519 36L45.2364 35.7125L45.7569 35.6037C45.7621 35.583 45.7647 35.5468 45.7647 35.495C45.7699 35.4432 45.7751 35.3603 45.7802 35.2463C45.7854 35.1324 45.788 34.9744 45.788 34.7724V34.2596C45.788 34.0473 45.7828 33.853 45.7725 33.6769C45.7621 33.5008 45.7492 33.3635 45.7336 33.2651L45.2131 33.1564V32.9L46.3163 32.6125L46.4329 32.7213C46.4173 32.8818 46.4044 33.0398 46.394 33.1952C46.3888 33.3506 46.3862 33.5319 46.3862 33.7391V34.718C46.3862 34.9563 46.3888 35.1531 46.394 35.3085C46.4044 35.4639 46.4147 35.5623 46.4251 35.6037L46.9457 35.7125L46.9301 36H45.2519ZM46.091 31.7345C45.9615 31.7345 45.8476 31.6905 45.7492 31.6025C45.6559 31.5144 45.6093 31.4056 45.6093 31.2761C45.6093 31.1467 45.6559 31.0379 45.7492 30.9498C45.8476 30.8618 45.9615 30.8177 46.091 30.8177C46.2257 30.8177 46.337 30.8618 46.4251 30.9498C46.5132 31.0379 46.5572 31.1467 46.5572 31.2761C46.5572 31.4056 46.5132 31.5144 46.4251 31.6025C46.337 31.6905 46.2257 31.7345 46.091 31.7345ZM48.6472 36.0621C48.4555 36.0621 48.2639 36.0414 48.0722 36C47.8806 35.9534 47.7174 35.8938 47.5828 35.8213L47.5439 34.99H47.9246L48.08 35.5494C48.2613 35.6737 48.4685 35.7358 48.7016 35.7358C48.8777 35.7358 49.0201 35.6944 49.1289 35.6115C49.2376 35.5235 49.292 35.4069 49.292 35.2619C49.292 35.1272 49.2428 35.0107 49.1444 34.9123C49.046 34.8087 48.8544 34.6973 48.5695 34.5782C48.2017 34.4176 47.9427 34.2648 47.7925 34.1198C47.6423 33.9696 47.5672 33.7779 47.5672 33.5448C47.5672 33.3584 47.6216 33.1952 47.7304 33.0554C47.8443 32.9103 47.9997 32.799 48.1965 32.7213C48.3934 32.6384 48.6213 32.597 48.8803 32.597C49.0253 32.597 49.1729 32.6099 49.3231 32.6358C49.4733 32.6617 49.5976 32.6954 49.696 32.7368L49.7815 33.5448H49.4163L49.2299 33.0165C49.1781 32.9854 49.1159 32.9621 49.0434 32.9466C48.9709 32.9259 48.8932 32.9155 48.8103 32.9155C48.629 32.9155 48.484 32.9595 48.3752 33.0476C48.2665 33.1305 48.2121 33.2392 48.2121 33.3739C48.2121 33.5293 48.2716 33.6562 48.3908 33.7546C48.5099 33.8478 48.7197 33.9644 49.0201 34.1042C49.362 34.2596 49.6002 34.4124 49.7349 34.5626C49.8696 34.7128 49.9369 34.8941 49.9369 35.1065C49.9369 35.3862 49.8152 35.6167 49.5717 35.798C49.3283 35.9741 49.0201 36.0621 48.6472 36.0621ZM50.4963 36L50.4808 35.7203L50.9625 35.6037C50.9677 35.5675 50.9702 35.5209 50.9702 35.4639C50.9754 35.4069 50.9806 35.324 50.9858 35.2153C50.991 35.1065 50.9936 34.9589 50.9936 34.7724L51.0013 34.1664C51.0065 34.0576 51.0039 33.9463 50.9936 33.8323C50.9884 33.7183 50.9806 33.6122 50.9702 33.5138C50.9599 33.4102 50.9495 33.3273 50.9392 33.2651L50.4419 33.1564V32.9L51.483 32.6125L51.6151 32.7368L51.5763 33.1564L51.5996 33.1641C51.7601 32.9621 51.9259 32.8171 52.0968 32.729C52.2729 32.641 52.4516 32.597 52.6329 32.597C52.8142 32.597 52.9903 32.6462 53.1612 32.7446C53.3322 32.843 53.472 32.9932 53.5808 33.1952C53.6947 33.3972 53.7517 33.6562 53.7517 33.9722L53.7595 34.7957C53.7595 34.9822 53.7621 35.1505 53.7673 35.3007C53.7776 35.4458 53.7906 35.5468 53.8061 35.6037L54.2723 35.7203L54.249 36H52.7339L52.7106 35.7203L53.1379 35.6037C53.1431 35.5623 53.1483 35.5105 53.1535 35.4484C53.1586 35.3862 53.1612 35.3085 53.1612 35.2153C53.1664 35.1169 53.169 34.9951 53.169 34.8501L53.1612 33.9955C53.1612 33.7727 53.125 33.594 53.0525 33.4594C52.9851 33.3247 52.8945 33.2263 52.7805 33.1641C52.6666 33.102 52.5449 33.0709 52.4154 33.0709C52.2548 33.0709 52.1046 33.1097 51.9647 33.1874C51.8249 33.2651 51.7006 33.3869 51.5918 33.5526V34.718C51.5918 34.9563 51.5944 35.1505 51.5996 35.3007C51.6099 35.4458 51.6203 35.5468 51.6306 35.6037L52.089 35.7203L52.0657 36H50.4963ZM54.8783 36L54.855 35.7203L55.2978 35.6037C55.303 35.5623 55.3056 35.5105 55.3056 35.4484C55.3108 35.3862 55.316 35.3085 55.3212 35.2153C55.3263 35.1169 55.3289 34.9951 55.3289 34.8501V34.0032C55.3289 33.7753 55.2901 33.594 55.2124 33.4594C55.1347 33.3247 55.0363 33.2263 54.9171 33.1641C54.8032 33.102 54.6866 33.0709 54.5675 33.0709C54.3914 33.0709 54.2282 33.1149 54.078 33.203C53.9278 33.291 53.7932 33.4257 53.674 33.607L53.5264 33.3195C53.7077 33.0709 53.8993 32.8896 54.1013 32.7757C54.3085 32.6565 54.5261 32.597 54.754 32.597C54.9715 32.597 55.1684 32.6487 55.3445 32.7523C55.5206 32.8559 55.6604 33.0061 55.764 33.203C55.8676 33.3998 55.9194 33.6381 55.9194 33.9178V34.7957C55.9194 34.9822 55.922 35.1505 55.9272 35.3007C55.9375 35.4458 55.9479 35.5468 55.9582 35.6037L56.44 35.7203L56.4244 36H54.8783Z" fill="white"/>
</svg>
