<svg width="105" height="45" viewBox="0 0 105 45" fill="none" xmlns="http://www.w3.org/2000/svg">
<path d="M7.3627 26.3418L0.611243 16.1729H4.83438L7.30714 19.8126C8.14065 21.0629 8.83524 22.2298 9.58541 23.619L14.3087 16.1729H18.4484L11.8081 26.314L18.4762 36.4829H14.2809L12.0026 33.121C11.1135 31.7596 10.3911 30.5371 9.58541 29.0646L4.63989 36.4829H0.472324L7.3627 26.3418ZM24.7182 16.1729V36.4829H21.1619V16.1729H24.7182ZM40.3338 28.1755H32.7766V36.4829H29.2203V16.1729H41.7786V19.4514H32.7766V24.9804H40.3338V28.1755ZM48.5407 16.1729V36.4829H44.9843V16.1729H48.5407ZM66.2678 36.4829H51.6535V33.1766L61.6835 19.4514H51.8758V16.1729H66.1011V19.3403L55.9878 33.2044H66.2678V36.4829ZM81.9904 36.4829H69.3765V16.1729H81.9904V19.4514H72.9329V24.6748H81.0457V27.8143H72.9329V33.2044H81.9904V36.4829ZM89.3468 36.4829H85.846V16.1729H89.3746L98.9044 30.5649V16.1729H102.405V36.4829H98.9044L89.3468 22.0909V36.4829Z" fill="white"/>
<path d="M10.0206 3.30411V10H9.11303V3.30411H10.0206ZM12.3045 10H11.4339V5.47124H12.2211L12.3137 6.16584C12.6008 5.64721 13.175 5.34159 13.8141 5.34159C15.0088 5.34159 15.5552 6.07323 15.5552 7.23088V10H14.6846V7.42537C14.6846 6.5085 14.2586 6.13805 13.5918 6.13805C12.7768 6.13805 12.3045 6.72151 12.3045 7.60133V10ZM18.039 10H17.1684V6.20288H16.2794V5.47124H17.1684V4.05427H18.039V5.47124H18.9281V6.20288H18.039V10ZM21.6183 10.1111C20.2846 10.1111 19.3678 9.14796 19.3678 7.74025C19.3678 6.32328 20.2661 5.34159 21.5812 5.34159C22.8685 5.34159 23.7113 6.23067 23.7113 7.57355V7.89769L20.2106 7.90695C20.2754 8.86086 20.7755 9.38876 21.6368 9.38876C22.3129 9.38876 22.7574 9.11092 22.9056 8.59229H23.7206C23.4983 9.56472 22.7389 10.1111 21.6183 10.1111ZM21.5812 6.07323C20.8218 6.07323 20.3402 6.52703 20.2291 7.3235H22.8408C22.8408 6.57333 22.3499 6.07323 21.5812 6.07323ZM24.3966 7.61986C24.3966 6.3418 25.2208 5.34159 26.5359 5.34159C27.2676 5.34159 27.8325 5.67499 28.1196 6.23993L28.1844 5.47124H28.9624V9.81477C28.9624 11.241 28.0826 12.1486 26.6934 12.1486C25.4616 12.1486 24.6188 11.454 24.4521 10.3056H25.3227C25.4338 10.9724 25.9339 11.3614 26.6934 11.3614C27.5454 11.3614 28.1011 10.8057 28.1011 9.94443V9.03683C27.8047 9.56472 27.212 9.8796 26.4989 9.8796C25.2116 9.8796 24.3966 8.88865 24.3966 7.61986ZM25.2671 7.60133C25.2671 8.45337 25.795 9.12018 26.6471 9.12018C27.5269 9.12018 28.064 8.49041 28.064 7.60133C28.064 6.73077 27.5454 6.10101 26.6563 6.10101C25.7858 6.10101 25.2671 6.76782 25.2671 7.60133ZM32.8119 5.4342V6.23067H32.4229C31.5986 6.23067 31.0893 6.73077 31.0893 7.60133V10H30.2187V5.4805H31.0337L31.0893 6.16584C31.2745 5.69351 31.7283 5.37863 32.3488 5.37863C32.5063 5.37863 32.6359 5.39715 32.8119 5.4342ZM34.7719 10.1111C33.7994 10.1111 33.2252 9.56472 33.2252 8.74047C33.2252 7.90695 33.8457 7.38832 34.9108 7.30497L36.337 7.19384V7.06418C36.337 6.30476 35.8832 6.03618 35.272 6.03618C34.5403 6.03618 34.1236 6.36032 34.1236 6.90674H33.3641C33.3641 5.96209 34.1421 5.34159 35.309 5.34159C36.4296 5.34159 37.189 5.93431 37.189 7.15679V10H36.4481L36.3555 9.26836C36.124 9.78699 35.5035 10.1111 34.7719 10.1111ZM35.0219 9.43506C35.8462 9.43506 36.3463 8.89791 36.3463 8.04587V7.80508L35.1886 7.89769C34.4199 7.97178 34.105 8.26814 34.105 8.71268C34.105 9.19427 34.457 9.43506 35.0219 9.43506ZM39.6004 10H38.7298V6.20288H37.8407V5.47124H38.7298V4.05427H39.6004V5.47124H40.4895V6.20288H39.6004V10ZM43.1796 10.1111C41.846 10.1111 40.9292 9.14796 40.9292 7.74025C40.9292 6.32328 41.8275 5.34159 43.1426 5.34159C44.4299 5.34159 45.2727 6.23067 45.2727 7.57355V7.89769L41.7719 7.90695C41.8368 8.86086 42.3369 9.38876 43.1982 9.38876C43.8742 9.38876 44.3188 9.11092 44.467 8.59229H45.2819C45.0597 9.56472 44.3002 10.1111 43.1796 10.1111ZM43.1426 6.07323C42.3832 6.07323 41.9016 6.52703 41.7904 7.3235H44.4021C44.4021 6.57333 43.9113 6.07323 43.1426 6.07323ZM48.0602 10.1111C46.7452 10.1111 45.9487 9.12944 45.9487 7.74951C45.9487 6.36032 46.7544 5.34159 48.0973 5.34159C48.7919 5.34159 49.3753 5.64721 49.681 6.20288V3.18371H50.5423V10H49.7643L49.6902 9.17575C49.3939 9.79625 48.7826 10.1111 48.0602 10.1111ZM48.2362 9.32393C49.1253 9.32393 49.6717 8.66638 49.6717 7.72173C49.6717 6.7956 49.1253 6.12879 48.2362 6.12879C47.3471 6.12879 46.8285 6.7956 46.8285 7.72173C46.8285 8.65712 47.3471 9.32393 48.2362 9.32393ZM55.8309 10L53.8397 3.30411H54.7844L56.0068 7.39759C56.0995 7.74951 56.1921 8.10144 56.2847 8.61081C56.3958 8.07366 56.4977 7.74951 56.5996 7.39759L57.8684 3.30411H58.8501L60.1096 7.39759C60.2207 7.75877 60.3133 8.1107 60.4152 8.61081C60.5263 8.04587 60.619 7.70321 60.7116 7.40685L61.9433 3.30411H62.8694L60.8505 10H59.9799L58.3592 4.70256L56.72 10H55.8309ZM65.0033 10.1111C63.6697 10.1111 62.7528 9.14796 62.7528 7.74025C62.7528 6.32328 63.6511 5.34159 64.9662 5.34159C66.2536 5.34159 67.0963 6.23067 67.0963 7.57355V7.89769L63.5956 7.90695C63.6604 8.86086 64.1605 9.38876 65.0218 9.38876C65.6979 9.38876 66.1424 9.11092 66.2906 8.59229H67.1056C66.8833 9.56472 66.1239 10.1111 65.0033 10.1111ZM64.9662 6.07323C64.2068 6.07323 63.7252 6.52703 63.6141 7.3235H66.2258C66.2258 6.57333 65.7349 6.07323 64.9662 6.07323ZM68.9578 10H68.0872V3.18371H68.9578V10ZM71.1284 10H70.2578V3.18371H71.1284V10ZM73.1971 10H72.4099V3.18371H73.2805V6.24919C73.5768 5.65647 74.1881 5.34159 74.929 5.34159C76.2256 5.34159 77.0035 6.36032 77.0035 7.75877C77.0035 9.12944 76.1885 10.1111 74.8734 10.1111C74.1603 10.1111 73.5583 9.79625 73.2619 9.17575L73.1971 10ZM73.2897 7.72173C73.2897 8.66638 73.8269 9.32393 74.716 9.32393C75.605 9.32393 76.1329 8.65712 76.1329 7.72173C76.1329 6.7956 75.605 6.12879 74.716 6.12879C73.8269 6.12879 73.2897 6.7956 73.2897 7.72173ZM79.9172 10.1111C78.5836 10.1111 77.6667 9.14796 77.6667 7.74025C77.6667 6.32328 78.565 5.34159 79.8801 5.34159C81.1674 5.34159 82.0102 6.23067 82.0102 7.57355V7.89769L78.5095 7.90695C78.5743 8.86086 79.0744 9.38876 79.9357 9.38876C80.6118 9.38876 81.0563 9.11092 81.2045 8.59229H82.0195C81.7972 9.56472 81.0378 10.1111 79.9172 10.1111ZM79.8801 6.07323C79.1207 6.07323 78.6391 6.52703 78.528 7.3235H81.1397C81.1397 6.57333 80.6488 6.07323 79.8801 6.07323ZM83.4086 4.39694C83.0937 4.39694 82.8344 4.13762 82.8344 3.82274C82.8344 3.49859 83.0937 3.24854 83.4086 3.24854C83.7235 3.24854 83.9828 3.49859 83.9828 3.82274C83.9828 4.13762 83.7235 4.39694 83.4086 4.39694ZM82.9826 10V5.47124H83.8531V10H82.9826ZM85.9876 10H85.117V5.47124H85.9042L85.9968 6.16584C86.2839 5.64721 86.8581 5.34159 87.4972 5.34159C88.6919 5.34159 89.2383 6.07323 89.2383 7.23088V10H88.3677V7.42537C88.3677 6.5085 87.9417 6.13805 87.2749 6.13805C86.4599 6.13805 85.9876 6.72151 85.9876 7.60133V10ZM90.157 7.61986C90.157 6.3418 90.9812 5.34159 92.2963 5.34159C93.0279 5.34159 93.5929 5.67499 93.88 6.23993L93.9448 5.47124H94.7228V9.81477C94.7228 11.241 93.8429 12.1486 92.4537 12.1486C91.222 12.1486 90.3792 11.454 90.2125 10.3056H91.0831C91.1942 10.9724 91.6943 11.3614 92.4537 11.3614C93.3058 11.3614 93.8615 10.8057 93.8615 9.94443V9.03683C93.5651 9.56472 92.9724 9.8796 92.2593 9.8796C90.9719 9.8796 90.157 8.88865 90.157 7.61986ZM91.0275 7.60133C91.0275 8.45337 91.5554 9.12018 92.4074 9.12018C93.2873 9.12018 93.8244 8.49041 93.8244 7.60133C93.8244 6.73077 93.3058 6.10101 92.4167 6.10101C91.5461 6.10101 91.0275 6.76782 91.0275 7.60133Z" fill="white"/>
</svg>
